<svg aria-roledescription="class" role="graphics-document document" viewBox="0 0 707.72265625 965.9000244140625" style="max-width: 707.72265625px;" class="classDiagram" xmlns="http://www.w3.org/2000/svg" width="100%" id="mermaidSvgId"><style>#mermaidSvgId{font-family:"trebuchet ms",verdana,arial,sans-serif;font-size:16px;fill:#0a0f14;}@keyframes edge-animation-frame{from{stroke-dashoffset:0;}}@keyframes dash{to{stroke-dashoffset:0;}}#mermaidSvgId .edge-animation-slow{stroke-dasharray:9,5!important;stroke-dashoffset:900;animation:dash 50s linear infinite;stroke-linecap:round;}#mermaidSvgId .edge-animation-fast{stroke-dasharray:9,5!important;stroke-dashoffset:900;animation:dash 20s linear infinite;stroke-linecap:round;}#mermaidSvgId .error-icon{fill:#ffebee;}#mermaidSvgId .error-text{fill:#c62828;stroke:#c62828;}#mermaidSvgId .edge-thickness-normal{stroke-width:1px;}#mermaidSvgId .edge-thickness-thick{stroke-width:3.5px;}#mermaidSvgId .edge-pattern-solid{stroke-dasharray:0;}#mermaidSvgId .edge-thickness-invisible{stroke-width:0;fill:none;}#mermaidSvgId .edge-pattern-dashed{stroke-dasharray:3;}#mermaidSvgId .edge-pattern-dotted{stroke-dasharray:2;}#mermaidSvgId .marker{fill:#0a0f14;stroke:#0a0f14;}#mermaidSvgId .marker.cross{stroke:#0a0f14;}#mermaidSvgId svg{font-family:"trebuchet ms",verdana,arial,sans-serif;font-size:16px;}#mermaidSvgId p{margin:0;}#mermaidSvgId g.classGroup text{fill:#1a468b;stroke:none;font-family:"trebuchet ms",verdana,arial,sans-serif;font-size:10px;}#mermaidSvgId g.classGroup text .title{font-weight:bolder;}#mermaidSvgId .nodeLabel,#mermaidSvgId .edgeLabel{color:#0a0f14;}#mermaidSvgId .edgeLabel .label rect{fill:#ffffff;}#mermaidSvgId .label text{fill:#0a0f14;}#mermaidSvgId .labelBkg{background:#ffffff;}#mermaidSvgId .edgeLabel .label span{background:#ffffff;}#mermaidSvgId .classTitle{font-weight:bolder;}#mermaidSvgId .node rect,#mermaidSvgId .node circle,#mermaidSvgId .node ellipse,#mermaidSvgId .node polygon,#mermaidSvgId .node path{fill:#ffffff;stroke:#1a468b;stroke-width:1px;}#mermaidSvgId .divider{stroke:#1a468b;stroke-width:1;}#mermaidSvgId g.clickable{cursor:pointer;}#mermaidSvgId g.classGroup rect{fill:#ffffff;stroke:#1a468b;}#mermaidSvgId g.classGroup line{stroke:#1a468b;stroke-width:1;}#mermaidSvgId .classLabel .box{stroke:none;stroke-width:0;fill:#ffffff;opacity:0.5;}#mermaidSvgId .classLabel .label{fill:#1a468b;font-size:10px;}#mermaidSvgId .relation{stroke:#0a0f14;stroke-width:1;fill:none;}#mermaidSvgId .dashed-line{stroke-dasharray:3;}#mermaidSvgId .dotted-line{stroke-dasharray:1 2;}#mermaidSvgId #compositionStart,#mermaidSvgId .composition{fill:#0a0f14!important;stroke:#0a0f14!important;stroke-width:1;}#mermaidSvgId #compositionEnd,#mermaidSvgId .composition{fill:#0a0f14!important;stroke:#0a0f14!important;stroke-width:1;}#mermaidSvgId #dependencyStart,#mermaidSvgId .dependency{fill:#0a0f14!important;stroke:#0a0f14!important;stroke-width:1;}#mermaidSvgId #dependencyStart,#mermaidSvgId .dependency{fill:#0a0f14!important;stroke:#0a0f14!important;stroke-width:1;}#mermaidSvgId #extensionStart,#mermaidSvgId .extension{fill:transparent!important;stroke:#0a0f14!important;stroke-width:1;}#mermaidSvgId #extensionEnd,#mermaidSvgId .extension{fill:transparent!important;stroke:#0a0f14!important;stroke-width:1;}#mermaidSvgId #aggregationStart,#mermaidSvgId .aggregation{fill:transparent!important;stroke:#0a0f14!important;stroke-width:1;}#mermaidSvgId #aggregationEnd,#mermaidSvgId .aggregation{fill:transparent!important;stroke:#0a0f14!important;stroke-width:1;}#mermaidSvgId #lollipopStart,#mermaidSvgId .lollipop{fill:#ffffff!important;stroke:#0a0f14!important;stroke-width:1;}#mermaidSvgId #lollipopEnd,#mermaidSvgId .lollipop{fill:#ffffff!important;stroke:#0a0f14!important;stroke-width:1;}#mermaidSvgId .edgeTerminals{font-size:11px;line-height:initial;}#mermaidSvgId .classTitleText{text-anchor:middle;font-size:18px;fill:#0a0f14;}#mermaidSvgId :root{--mermaid-font-family:"trebuchet ms",verdana,arial,sans-serif;}</style><g><defs><marker orient="auto" markerHeight="240" markerWidth="190" refY="7" refX="18" class="marker aggregation class" id="mermaidSvgId_class-aggregationStart"><path d="M 18,7 L9,13 L1,7 L9,1 Z"></path></marker></defs><defs><marker orient="auto" markerHeight="28" markerWidth="20" refY="7" refX="1" class="marker aggregation class" id="mermaidSvgId_class-aggregationEnd"><path d="M 18,7 L9,13 L1,7 L9,1 Z"></path></marker></defs><defs><marker orient="auto" markerHeight="240" markerWidth="190" refY="7" refX="18" class="marker extension class" id="mermaidSvgId_class-extensionStart"><path d="M 1,7 L18,13 V 1 Z"></path></marker></defs><defs><marker orient="auto" markerHeight="28" markerWidth="20" refY="7" refX="1" class="marker extension class" id="mermaidSvgId_class-extensionEnd"><path d="M 1,1 V 13 L18,7 Z"></path></marker></defs><defs><marker orient="auto" markerHeight="240" markerWidth="190" refY="7" refX="18" class="marker composition class" id="mermaidSvgId_class-compositionStart"><path d="M 18,7 L9,13 L1,7 L9,1 Z"></path></marker></defs><defs><marker orient="auto" markerHeight="28" markerWidth="20" refY="7" refX="1" class="marker composition class" id="mermaidSvgId_class-compositionEnd"><path d="M 18,7 L9,13 L1,7 L9,1 Z"></path></marker></defs><defs><marker orient="auto" markerHeight="240" markerWidth="190" refY="7" refX="6" class="marker dependency class" id="mermaidSvgId_class-dependencyStart"><path d="M 5,7 L9,13 L1,7 L9,1 Z"></path></marker></defs><defs><marker orient="auto" markerHeight="28" markerWidth="20" refY="7" refX="13" class="marker dependency class" id="mermaidSvgId_class-dependencyEnd"><path d="M 18,7 L9,13 L14,7 L9,1 Z"></path></marker></defs><defs><marker orient="auto" markerHeight="240" markerWidth="190" refY="7" refX="13" class="marker lollipop class" id="mermaidSvgId_class-lollipopStart"><circle r="6" cy="7" cx="7" fill="transparent" stroke="black"></circle></marker></defs><defs><marker orient="auto" markerHeight="240" markerWidth="190" refY="7" refX="1" class="marker lollipop class" id="mermaidSvgId_class-lollipopEnd"><circle r="6" cy="7" cx="7" fill="transparent" stroke="black"></circle></marker></defs><g class="root"><g class="clusters"></g><g class="edgePaths"><path marker-end="url(#mermaidSvgId_class-dependencyEnd)" style=";" class="edge-thickness-normal edge-pattern-solid relation" id="id_Dashboard_Disaster_1" d="M357.982,265.25L378.272,257.15C398.562,249.05,439.142,232.85,463.328,225.358C487.514,217.865,495.307,219.08,499.204,219.688L503.1,220.295"></path><path marker-end="url(#mermaidSvgId_class-dependencyEnd)" style=";" class="edge-thickness-normal edge-pattern-solid relation" id="id_Dashboard_Weather_2" d="M357.982,358.167L378.272,364.956C398.562,371.745,439.142,385.322,470.339,411.696C501.536,438.069,523.352,477.239,534.259,496.823L545.167,516.408"></path><path marker-end="url(#mermaidSvgId_class-dependencyEnd)" style=";" class="edge-thickness-normal edge-pattern-solid relation" id="id_DisasterService_Disaster_3" d="M397.003,97.5L410.789,97.5C424.576,97.5,452.148,97.5,470.156,102.264C488.164,107.028,496.607,116.556,500.828,121.321L505.049,126.085"></path><path marker-end="url(#mermaidSvgId_class-dependencyEnd)" style=";" class="edge-thickness-normal edge-pattern-solid relation" id="id_WeatherService_Weather_4" d="M454.721,666.8L458.888,666.8C463.054,666.8,471.388,666.8,478.79,665.534C486.192,664.267,492.663,661.734,495.898,660.468L499.134,659.201"></path><path marker-end="url(#mermaidSvgId_class-dependencyEnd)" style=";" class="edge-thickness-normal edge-pattern-solid relation" id="id_LocationService_Location_5" d="M434.488,871.4L442.027,871.4C449.566,871.4,464.643,871.4,477.371,871.4C490.098,871.4,500.474,871.4,505.663,871.4L510.851,871.4"></path><path marker-end="url(#mermaidSvgId_class-dependencyEnd)" style=";" class="edge-thickness-normal edge-pattern-solid relation" id="id_EmailService_Disaster_6" d="M393.423,502L407.806,502C422.189,502,450.955,502,477.063,476.517C503.171,451.034,526.62,400.067,538.345,374.584L550.07,349.101"></path></g><g class="edgeLabels"><g><rect style="stroke: none" class="background"></rect></g><g><rect style="stroke: none" class="background"></rect></g><g><rect style="stroke: none" class="background"></rect></g><g><rect style="stroke: none" class="background"></rect></g><g><rect style="stroke: none" class="background"></rect></g><g><rect style="stroke: none" class="background"></rect></g><g class="edgeLabel"><g transform="translate(0, 0)" class="label"><text y="-10.1"><tspan dy="1.1em" y="-0.1em" x="0" class="text-outer-tspan"></tspan></text></g></g><g class="edgeLabel"><g transform="translate(0, 0)" class="label"><text y="-10.1"><tspan dy="1.1em" y="-0.1em" x="0" class="text-outer-tspan"></tspan></text></g></g><g class="edgeLabel"><g transform="translate(0, 0)" class="label"><text y="-10.1"><tspan dy="1.1em" y="-0.1em" x="0" class="text-outer-tspan"></tspan></text></g></g><g class="edgeLabel"><g transform="translate(0, 0)" class="label"><text y="-10.1"><tspan dy="1.1em" y="-0.1em" x="0" class="text-outer-tspan"></tspan></text></g></g><g class="edgeLabel"><g transform="translate(0, 0)" class="label"><text y="-10.1"><tspan dy="1.1em" y="-0.1em" x="0" class="text-outer-tspan"></tspan></text></g></g><g class="edgeLabel"><g transform="translate(0, 0)" class="label"><text y="-10.1"><tspan dy="1.1em" y="-0.1em" x="0" class="text-outer-tspan"></tspan></text></g></g></g><g class="nodes"><g transform="translate(602.2218856811523, 871.4000129699707)" id="classId-Location-267" class="node default"><g class="basic label-container"><path style="" fill="#ffffff" stroke-width="0" stroke="none" d="M-85.37110137939453 -86.5 L85.37110137939453 -86.5 L85.37110137939453 86.5 L-85.37110137939453 86.5"></path><path style="" fill="none" stroke-width="1.3" stroke="#1a468b" d="M-85.37110137939453 -86.5 C-31.726464793271774 -86.5, 21.918171792850984 -86.5, 85.37110137939453 -86.5 M-85.37110137939453 -86.5 C-45.26895672698218 -86.5, -5.166812074569833 -86.5, 85.37110137939453 -86.5 M85.37110137939453 -86.5 C85.37110137939453 -21.304640596288706, 85.37110137939453 43.89071880742259, 85.37110137939453 86.5 M85.37110137939453 -86.5 C85.37110137939453 -26.99797210456613, 85.37110137939453 32.50405579086774, 85.37110137939453 86.5 M85.37110137939453 86.5 C27.74320591876338 86.5, -29.884689541867772 86.5, -85.37110137939453 86.5 M85.37110137939453 86.5 C34.97747630348176 86.5, -15.416148772431015 86.5, -85.37110137939453 86.5 M-85.37110137939453 86.5 C-85.37110137939453 17.432875262018015, -85.37110137939453 -51.63424947596397, -85.37110137939453 -86.5 M-85.37110137939453 86.5 C-85.37110137939453 21.25945178358917, -85.37110137939453 -43.98109643282166, -85.37110137939453 -86.5"></path></g><g transform="translate(0, -66.5)" class="annotation-group text"></g><g transform="translate(-32.118751525878906, -66.5)" class="label-group text"><g transform="translate(0,-9.199999809265137)" style="font-weight: bolder" class="label"><g><rect style="stroke: none" class="background"></rect><text style="" y="-10.1"><tspan font-weight="" dy="1.1em" y="-0.1em" x="0" class="text-outer-tspan"><tspan font-weight="" class="text-inner-tspan" font-style="normal">Location</tspan></tspan></text></g></g></g><g transform="translate(-73.37110137939453, -24.100000381469727)" class="members-group text"><g transform="translate(0,-9.199999809265137)" style="" class="label"><g><rect style="stroke: none" class="background"></rect><text style="" y="-10.1"><tspan dy="1.1em" y="-0.1em" x="0" class="text-outer-tspan"><tspan font-weight="normal" class="text-inner-tspan" font-style="normal">+float</tspan><tspan font-weight="normal" class="text-inner-tspan" font-style="normal"> latitude</tspan></tspan></text></g></g><g transform="translate(0,12.199999809265137)" style="" class="label"><g><rect style="stroke: none" class="background"></rect><text style="" y="-10.1"><tspan dy="1.1em" y="-0.1em" x="0" class="text-outer-tspan"><tspan font-weight="normal" class="text-inner-tspan" font-style="normal">+float</tspan><tspan font-weight="normal" class="text-inner-tspan" font-style="normal"> longitude</tspan></tspan></text></g></g><g transform="translate(0,33.59999942779541)" style="" class="label"><g><rect style="stroke: none" class="background"></rect><text style="" y="-10.1"><tspan dy="1.1em" y="-0.1em" x="0" class="text-outer-tspan"><tspan font-weight="normal" class="text-inner-tspan" font-style="normal">+String</tspan><tspan font-weight="normal" class="text-inner-tspan" font-style="normal"> city</tspan></tspan></text></g></g><g transform="translate(0,54.999999046325684)" style="" class="label"><g><rect style="stroke: none" class="background"></rect><text style="" y="-10.1"><tspan dy="1.1em" y="-0.1em" x="0" class="text-outer-tspan"><tspan font-weight="normal" class="text-inner-tspan" font-style="normal">+String</tspan><tspan font-weight="normal" class="text-inner-tspan" font-style="normal"> country</tspan></tspan></text></g></g></g><g transform="translate(-73.37110137939453, 82.49999809265137)" class="methods-group text"></g><g style="" class="divider"><path style="" fill="none" stroke-width="1.3" stroke="#1a468b" d="M-85.37110137939453 -44.10000038146973 C-44.43107764625804 -44.10000038146973, -3.4910539131215472 -44.10000038146973, 85.37110137939453 -44.10000038146973 M-85.37110137939453 -44.10000038146973 C-43.46001210770804 -44.10000038146973, -1.5489228360215463 -44.10000038146973, 85.37110137939453 -44.10000038146973"></path></g><g style="" class="divider"><path style="" fill="none" stroke-width="1.3" stroke="#1a468b" d="M-85.37110137939453 62.49999809265137 C-49.5540605673305 62.49999809265137, -13.737019755266473 62.49999809265137, 85.37110137939453 62.49999809265137 M-85.37110137939453 62.49999809265137 C-28.5394167952648 62.49999809265137, 28.292267788864933 62.49999809265137, 85.37110137939453 62.49999809265137"></path></g></g><g transform="translate(231.3605499267578, 315.8000030517578)" id="classId-Dashboard-268" class="node default"><g class="basic label-container"><path style="" fill="#ffffff" stroke-width="0" stroke="none" d="M-126.62187957763672 -78.80000305175781 L126.62187957763672 -78.80000305175781 L126.62187957763672 78.80000305175781 L-126.62187957763672 78.80000305175781"></path><path style="" fill="none" stroke-width="1.3" stroke="#1a468b" d="M-126.62187957763672 -78.80000305175781 C-41.416891777135376 -78.80000305175781, 43.788096023365966 -78.80000305175781, 126.62187957763672 -78.80000305175781 M-126.62187957763672 -78.80000305175781 C-60.64623587012518 -78.80000305175781, 5.329407837386356 -78.80000305175781, 126.62187957763672 -78.80000305175781 M126.62187957763672 -78.80000305175781 C126.62187957763672 -17.49223665651114, 126.62187957763672 43.815529738735535, 126.62187957763672 78.80000305175781 M126.62187957763672 -78.80000305175781 C126.62187957763672 -46.37545936358445, 126.62187957763672 -13.950915675411082, 126.62187957763672 78.80000305175781 M126.62187957763672 78.80000305175781 C60.60417792477146 78.80000305175781, -5.413523728093793 78.80000305175781, -126.62187957763672 78.80000305175781 M126.62187957763672 78.80000305175781 C72.10411661252729 78.80000305175781, 17.58635364741788 78.80000305175781, -126.62187957763672 78.80000305175781 M-126.62187957763672 78.80000305175781 C-126.62187957763672 34.0743306501105, -126.62187957763672 -10.651341751536819, -126.62187957763672 -78.80000305175781 M-126.62187957763672 78.80000305175781 C-126.62187957763672 16.078867141927745, -126.62187957763672 -46.64226876790232, -126.62187957763672 -78.80000305175781"></path></g><g transform="translate(0, -58.80000305175781)" class="annotation-group text"></g><g transform="translate(-39.09375, -58.80000305175781)" class="label-group text"><g transform="translate(0,-9.199999809265137)" style="font-weight: bolder" class="label"><g><rect style="stroke: none" class="background"></rect><text style="" y="-10.1"><tspan font-weight="" dy="1.1em" y="-0.1em" x="0" class="text-outer-tspan"><tspan font-weight="" class="text-inner-tspan" font-style="normal">Dashboard</tspan></tspan></text></g></g></g><g transform="translate(-114.62187957763672, -16.40000343322754)" class="members-group text"></g><g transform="translate(-114.62187957763672, 13.599996566772461)" class="methods-group text"><g transform="translate(0,-9.199999809265137)" style="" class="label"><g><rect style="stroke: none" class="background"></rect><text style="" y="-10.1"><tspan dy="1.1em" y="-0.1em" x="0" class="text-outer-tspan"><tspan font-weight="normal" class="text-inner-tspan" font-style="normal">+showAlert(Disaster)</tspan></tspan></text></g></g><g transform="translate(0,12.199999809265137)" style="" class="label"><g><rect style="stroke: none" class="background"></rect><text style="" y="-10.1"><tspan dy="1.1em" y="-0.1em" x="0" class="text-outer-tspan"><tspan font-weight="normal" class="text-inner-tspan" font-style="normal">+showSafeMessage()</tspan></tspan></text></g></g><g transform="translate(0,33.59999942779541)" style="" class="label"><g><rect style="stroke: none" class="background"></rect><text style="" y="-10.1"><tspan dy="1.1em" y="-0.1em" x="0" class="text-outer-tspan"><tspan font-weight="normal" class="text-inner-tspan" font-style="normal">+displayWeather(Weather)</tspan></tspan></text></g></g></g><g style="" class="divider"><path style="" fill="none" stroke-width="1.3" stroke="#1a468b" d="M-126.62187957763672 -36.40000343322754 C-63.30424087773651 -36.40000343322754, 0.01339782216369656 -36.40000343322754, 126.62187957763672 -36.40000343322754 M-126.62187957763672 -36.40000343322754 C-54.09441809212265 -36.40000343322754, 18.433043393391415 -36.40000343322754, 126.62187957763672 -36.40000343322754"></path></g><g style="" class="divider"><path style="" fill="none" stroke-width="1.3" stroke="#1a468b" d="M-126.62187957763672 -12.400003433227539 C-25.63762424063181 -12.400003433227539, 75.3466310963731 -12.400003433227539, 126.62187957763672 -12.400003433227539 M-126.62187957763672 -12.400003433227539 C-69.98443186710062 -12.400003433227539, -13.346984156564517 -12.400003433227539, 126.62187957763672 -12.400003433227539"></path></g></g><g transform="translate(602.2218856811523, 235.74999618530273)" id="classId-Disaster-269" class="node default"><g class="basic label-container"><path style="" fill="#ffffff" stroke-width="0" stroke="none" d="M-93.193359375 -107.89999389648438 L93.193359375 -107.89999389648438 L93.193359375 107.89999389648438 L-93.193359375 107.89999389648438"></path><path style="" fill="none" stroke-width="1.3" stroke="#1a468b" d="M-93.193359375 -107.89999389648438 C-46.68478947383749 -107.89999389648438, -0.1762195726749809 -107.89999389648438, 93.193359375 -107.89999389648438 M-93.193359375 -107.89999389648438 C-34.768227165257855 -107.89999389648438, 23.65690504448429 -107.89999389648438, 93.193359375 -107.89999389648438 M93.193359375 -107.89999389648438 C93.193359375 -50.191089230168274, 93.193359375 7.517815436147828, 93.193359375 107.89999389648438 M93.193359375 -107.89999389648438 C93.193359375 -38.60345750713401, 93.193359375 30.693078882216355, 93.193359375 107.89999389648438 M93.193359375 107.89999389648438 C50.112538309681106 107.89999389648438, 7.031717244362213 107.89999389648438, -93.193359375 107.89999389648438 M93.193359375 107.89999389648438 C42.75261132059347 107.89999389648438, -7.688136733813053 107.89999389648438, -93.193359375 107.89999389648438 M-93.193359375 107.89999389648438 C-93.193359375 53.80041716485807, -93.193359375 -0.29915956676823896, -93.193359375 -107.89999389648438 M-93.193359375 107.89999389648438 C-93.193359375 49.13645919745356, -93.193359375 -9.627075501577252, -93.193359375 -107.89999389648438"></path></g><g transform="translate(0, -87.89999389648438)" class="annotation-group text"></g><g transform="translate(-30.049219131469727, -87.89999389648438)" class="label-group text"><g transform="translate(0,-9.199999809265137)" style="font-weight: bolder" class="label"><g><rect style="stroke: none" class="background"></rect><text style="" y="-10.1"><tspan font-weight="" dy="1.1em" y="-0.1em" x="0" class="text-outer-tspan"><tspan font-weight="" class="text-inner-tspan" font-style="normal">Disaster</tspan></tspan></text></g></g></g><g transform="translate(-81.193359375, -45.4999942779541)" class="members-group text"><g transform="translate(0,-9.199999809265137)" style="" class="label"><g><rect style="stroke: none" class="background"></rect><text style="" y="-10.1"><tspan dy="1.1em" y="-0.1em" x="0" class="text-outer-tspan"><tspan font-weight="normal" class="text-inner-tspan" font-style="normal">+String</tspan><tspan font-weight="normal" class="text-inner-tspan" font-style="normal"> type</tspan></tspan></text></g></g><g transform="translate(0,12.199999809265137)" style="" class="label"><g><rect style="stroke: none" class="background"></rect><text style="" y="-10.1"><tspan dy="1.1em" y="-0.1em" x="0" class="text-outer-tspan"><tspan font-weight="normal" class="text-inner-tspan" font-style="normal">+String</tspan><tspan font-weight="normal" class="text-inner-tspan" font-style="normal"> source</tspan></tspan></text></g></g><g transform="translate(0,33.59999942779541)" style="" class="label"><g><rect style="stroke: none" class="background"></rect><text style="" y="-10.1"><tspan dy="1.1em" y="-0.1em" x="0" class="text-outer-tspan"><tspan font-weight="normal" class="text-inner-tspan" font-style="normal">+String</tspan><tspan font-weight="normal" class="text-inner-tspan" font-style="normal"> summary</tspan></tspan></text></g></g><g transform="translate(0,54.999999046325684)" style="" class="label"><g><rect style="stroke: none" class="background"></rect><text style="" y="-10.1"><tspan dy="1.1em" y="-0.1em" x="0" class="text-outer-tspan"><tspan font-weight="normal" class="text-inner-tspan" font-style="normal">+Location</tspan><tspan font-weight="normal" class="text-inner-tspan" font-style="normal"> location</tspan></tspan></text></g></g><g transform="translate(0,76.39999866485596)" style="" class="label"><g><rect style="stroke: none" class="background"></rect><text style="" y="-10.1"><tspan dy="1.1em" y="-0.1em" x="0" class="text-outer-tspan"><tspan font-weight="normal" class="text-inner-tspan" font-style="normal">+Date</tspan><tspan font-weight="normal" class="text-inner-tspan" font-style="normal"> time</tspan></tspan></text></g></g><g transform="translate(0,97.79999828338623)" style="" class="label"><g><rect style="stroke: none" class="background"></rect><text style="" y="-10.1"><tspan dy="1.1em" y="-0.1em" x="0" class="text-outer-tspan"><tspan font-weight="normal" class="text-inner-tspan" font-style="normal">+int</tspan><tspan font-weight="normal" class="text-inner-tspan" font-style="normal"> severity</tspan></tspan></text></g></g></g><g transform="translate(-81.193359375, 103.9000072479248)" class="methods-group text"></g><g style="" class="divider"><path style="" fill="none" stroke-width="1.3" stroke="#1a468b" d="M-93.193359375 -65.4999942779541 C-37.16668286621556 -65.4999942779541, 18.85999364256888 -65.4999942779541, 93.193359375 -65.4999942779541 M-93.193359375 -65.4999942779541 C-46.55396564417176 -65.4999942779541, 0.08542808665647783 -65.4999942779541, 93.193359375 -65.4999942779541"></path></g><g style="" class="divider"><path style="" fill="none" stroke-width="1.3" stroke="#1a468b" d="M-93.193359375 83.9000072479248 C-45.797333173903525 83.9000072479248, 1.598693027192951 83.9000072479248, 93.193359375 83.9000072479248 M-93.193359375 83.9000072479248 C-26.543461614547397 83.9000072479248, 40.10643614590521 83.9000072479248, 93.193359375 83.9000072479248"></path></g></g><g transform="translate(602.2218856811523, 618.8500022888184)" id="classId-Weather-270" class="node default"><g class="basic label-container"><path style="" fill="#ffffff" stroke-width="0" stroke="none" d="M-97.50078582763672 -97.19999694824219 L97.50078582763672 -97.19999694824219 L97.50078582763672 97.19999694824219 L-97.50078582763672 97.19999694824219"></path><path style="" fill="none" stroke-width="1.3" stroke="#1a468b" d="M-97.50078582763672 -97.19999694824219 C-33.58127777450776 -97.19999694824219, 30.338230278621197 -97.19999694824219, 97.50078582763672 -97.19999694824219 M-97.50078582763672 -97.19999694824219 C-25.043268624585536 -97.19999694824219, 47.414248578465646 -97.19999694824219, 97.50078582763672 -97.19999694824219 M97.50078582763672 -97.19999694824219 C97.50078582763672 -56.395767642298985, 97.50078582763672 -15.591538336355782, 97.50078582763672 97.19999694824219 M97.50078582763672 -97.19999694824219 C97.50078582763672 -39.4887168665338, 97.50078582763672 18.22256321517459, 97.50078582763672 97.19999694824219 M97.50078582763672 97.19999694824219 C58.40138120788428 97.19999694824219, 19.301976588131836 97.19999694824219, -97.50078582763672 97.19999694824219 M97.50078582763672 97.19999694824219 C41.85101029186178 97.19999694824219, -13.798765243913152 97.19999694824219, -97.50078582763672 97.19999694824219 M-97.50078582763672 97.19999694824219 C-97.50078582763672 36.81716894727733, -97.50078582763672 -23.565659053687526, -97.50078582763672 -97.19999694824219 M-97.50078582763672 97.19999694824219 C-97.50078582763672 29.805207359193844, -97.50078582763672 -37.5895822298545, -97.50078582763672 -97.19999694824219"></path></g><g transform="translate(0, -77.19999694824219)" class="annotation-group text"></g><g transform="translate(-32.296875, -77.19999694824219)" class="label-group text"><g transform="translate(0,-9.199999809265137)" style="font-weight: bolder" class="label"><g><rect style="stroke: none" class="background"></rect><text style="" y="-10.1"><tspan font-weight="" dy="1.1em" y="-0.1em" x="0" class="text-outer-tspan"><tspan font-weight="" class="text-inner-tspan" font-style="normal">Weather</tspan></tspan></text></g></g></g><g transform="translate(-85.50078582763672, -34.799997329711914)" class="members-group text"><g transform="translate(0,-9.199999809265137)" style="" class="label"><g><rect style="stroke: none" class="background"></rect><text style="" y="-10.1"><tspan dy="1.1em" y="-0.1em" x="0" class="text-outer-tspan"><tspan font-weight="normal" class="text-inner-tspan" font-style="normal">+float</tspan><tspan font-weight="normal" class="text-inner-tspan" font-style="normal"> temperature</tspan></tspan></text></g></g><g transform="translate(0,12.199999809265137)" style="" class="label"><g><rect style="stroke: none" class="background"></rect><text style="" y="-10.1"><tspan dy="1.1em" y="-0.1em" x="0" class="text-outer-tspan"><tspan font-weight="normal" class="text-inner-tspan" font-style="normal">+float</tspan><tspan font-weight="normal" class="text-inner-tspan" font-style="normal"> humidity</tspan></tspan></text></g></g><g transform="translate(0,33.59999942779541)" style="" class="label"><g><rect style="stroke: none" class="background"></rect><text style="" y="-10.1"><tspan dy="1.1em" y="-0.1em" x="0" class="text-outer-tspan"><tspan font-weight="normal" class="text-inner-tspan" font-style="normal">+float</tspan><tspan font-weight="normal" class="text-inner-tspan" font-style="normal"> windSpeed</tspan></tspan></text></g></g><g transform="translate(0,54.999999046325684)" style="" class="label"><g><rect style="stroke: none" class="background"></rect><text style="" y="-10.1"><tspan dy="1.1em" y="-0.1em" x="0" class="text-outer-tspan"><tspan font-weight="normal" class="text-inner-tspan" font-style="normal">+String</tspan><tspan font-weight="normal" class="text-inner-tspan" font-style="normal"> summary</tspan></tspan></text></g></g><g transform="translate(0,76.39999866485596)" style="" class="label"><g><rect style="stroke: none" class="background"></rect><text style="" y="-10.1"><tspan dy="1.1em" y="-0.1em" x="0" class="text-outer-tspan"><tspan font-weight="normal" class="text-inner-tspan" font-style="normal">+Date</tspan><tspan font-weight="normal" class="text-inner-tspan" font-style="normal"> time</tspan></tspan></text></g></g></g><g transform="translate(-85.50078582763672, 93.20001029968262)" class="methods-group text"></g><g style="" class="divider"><path style="" fill="none" stroke-width="1.3" stroke="#1a468b" d="M-97.50078582763672 -54.799997329711914 C-31.63431565672208 -54.799997329711914, 34.23215451419256 -54.799997329711914, 97.50078582763672 -54.799997329711914 M-97.50078582763672 -54.799997329711914 C-46.94641213658547 -54.799997329711914, 3.607961554465774 -54.799997329711914, 97.50078582763672 -54.799997329711914"></path></g><g style="" class="divider"><path style="" fill="none" stroke-width="1.3" stroke="#1a468b" d="M-97.50078582763672 73.20001029968262 C-19.62990493022643 73.20001029968262, 58.24097596718386 73.20001029968262, 97.50078582763672 73.20001029968262 M-97.50078582763672 73.20001029968262 C-47.563518462888666 73.20001029968262, 2.3737489018593863 73.20001029968262, 97.50078582763672 73.20001029968262"></path></g></g><g transform="translate(231.3605499267578, 97.5)" id="classId-DisasterService-271" class="node default"><g class="basic label-container"><path style="" fill="#ffffff" stroke-width="0" stroke="none" d="M-165.64219665527344 -89.5 L165.64219665527344 -89.5 L165.64219665527344 89.5 L-165.64219665527344 89.5"></path><path style="" fill="none" stroke-width="1.3" stroke="#1a468b" d="M-165.64219665527344 -89.5 C-64.40800543708987 -89.5, 36.8261857810937 -89.5, 165.64219665527344 -89.5 M-165.64219665527344 -89.5 C-86.53513577323668 -89.5, -7.428074891199913 -89.5, 165.64219665527344 -89.5 M165.64219665527344 -89.5 C165.64219665527344 -31.575965099278456, 165.64219665527344 26.34806980144309, 165.64219665527344 89.5 M165.64219665527344 -89.5 C165.64219665527344 -25.720885319856585, 165.64219665527344 38.05822936028683, 165.64219665527344 89.5 M165.64219665527344 89.5 C62.80320337840463 89.5, -40.035789898464174 89.5, -165.64219665527344 89.5 M165.64219665527344 89.5 C81.38351947397247 89.5, -2.8751577073284977 89.5, -165.64219665527344 89.5 M-165.64219665527344 89.5 C-165.64219665527344 26.979319193478396, -165.64219665527344 -35.54136161304321, -165.64219665527344 -89.5 M-165.64219665527344 89.5 C-165.64219665527344 19.56841189500186, -165.64219665527344 -50.36317620999628, -165.64219665527344 -89.5"></path></g><g transform="translate(0, -69.5)" class="annotation-group text"></g><g transform="translate(-57.72187423706055, -69.5)" class="label-group text"><g transform="translate(0,-9.199999809265137)" style="font-weight: bolder" class="label"><g><rect style="stroke: none" class="background"></rect><text style="" y="-10.1"><tspan font-weight="" dy="1.1em" y="-0.1em" x="0" class="text-outer-tspan"><tspan font-weight="" class="text-inner-tspan" font-style="normal">DisasterService</tspan></tspan></text></g></g></g><g transform="translate(-153.64219665527344, -27.100000381469727)" class="members-group text"></g><g transform="translate(-153.64219665527344, 2.8999996185302734)" class="methods-group text"><g transform="translate(0,-9.199999809265137)" style="" class="label"><g><rect style="stroke: none" class="background"></rect><text style="" y="-10.1"><tspan dy="1.1em" y="-0.1em" x="0" class="text-outer-tspan"><tspan font-weight="normal" class="text-inner-tspan" font-style="normal">+fetchFromReddit()</tspan></tspan></text></g></g><g transform="translate(0,12.199999809265137)" style="" class="label"><g><rect style="stroke: none" class="background"></rect><text style="" y="-10.1"><tspan dy="1.1em" y="-0.1em" x="0" class="text-outer-tspan"><tspan font-weight="normal" class="text-inner-tspan" font-style="normal">+fetchFromReliefWeb()</tspan></tspan></text></g></g><g transform="translate(0,33.59999942779541)" style="" class="label"><g><rect style="stroke: none" class="background"></rect><text style="" y="-10.1"><tspan dy="1.1em" y="-0.1em" x="0" class="text-outer-tspan"><tspan font-weight="normal" class="text-inner-tspan" font-style="normal">+fetchFromNewsAPI()</tspan></tspan></text></g></g><g transform="translate(0,54.999999046325684)" style="" class="label"><g><rect style="stroke: none" class="background"></rect><text style="" y="-10.1"><tspan dy="1.1em" y="-0.1em" x="0" class="text-outer-tspan"><tspan font-weight="normal" class="text-inner-tspan" font-style="normal">+aggregateDisasters()</tspan><tspan font-weight="normal" class="text-inner-tspan" font-style="normal"> :</tspan><tspan font-weight="normal" class="text-inner-tspan" font-style="normal"> :</tspan><tspan font-weight="normal" class="text-inner-tspan" font-style="normal"> Disaster[]</tspan></tspan></text></g></g></g><g style="" class="divider"><path style="" fill="none" stroke-width="1.3" stroke="#1a468b" d="M-165.64219665527344 -47.10000038146973 C-97.52527307335409 -47.10000038146973, -29.408349491434734 -47.10000038146973, 165.64219665527344 -47.10000038146973 M-165.64219665527344 -47.10000038146973 C-92.68599950735216 -47.10000038146973, -19.72980235943089 -47.10000038146973, 165.64219665527344 -47.10000038146973"></path></g><g style="" class="divider"><path style="" fill="none" stroke-width="1.3" stroke="#1a468b" d="M-165.64219665527344 -23.100000381469727 C-77.69227627347081 -23.100000381469727, 10.257644108331817 -23.100000381469727, 165.64219665527344 -23.100000381469727 M-165.64219665527344 -23.100000381469727 C-46.3809967652695 -23.100000381469727, 72.88020312473444 -23.100000381469727, 165.64219665527344 -23.100000381469727"></path></g></g><g transform="translate(231.3605499267578, 666.8000106811523)" id="classId-WeatherService-272" class="node default"><g class="basic label-container"><path style="" fill="#ffffff" stroke-width="0" stroke="none" d="M-223.3605499267578 -57.400001525878906 L223.3605499267578 -57.400001525878906 L223.3605499267578 57.400001525878906 L-223.3605499267578 57.400001525878906"></path><path style="" fill="none" stroke-width="1.3" stroke="#1a468b" d="M-223.3605499267578 -57.400001525878906 C-56.38094622009581 -57.400001525878906, 110.5986574865662 -57.400001525878906, 223.3605499267578 -57.400001525878906 M-223.3605499267578 -57.400001525878906 C-48.174592190456735 -57.400001525878906, 127.01136554584434 -57.400001525878906, 223.3605499267578 -57.400001525878906 M223.3605499267578 -57.400001525878906 C223.3605499267578 -33.99807435230382, 223.3605499267578 -10.596147178728721, 223.3605499267578 57.400001525878906 M223.3605499267578 -57.400001525878906 C223.3605499267578 -17.722307401182114, 223.3605499267578 21.95538672351468, 223.3605499267578 57.400001525878906 M223.3605499267578 57.400001525878906 C96.0173227899652 57.400001525878906, -31.3259043468274 57.400001525878906, -223.3605499267578 57.400001525878906 M223.3605499267578 57.400001525878906 C88.93292354958655 57.400001525878906, -45.49470282758472 57.400001525878906, -223.3605499267578 57.400001525878906 M-223.3605499267578 57.400001525878906 C-223.3605499267578 27.17796021037698, -223.3605499267578 -3.0440811051249455, -223.3605499267578 -57.400001525878906 M-223.3605499267578 57.400001525878906 C-223.3605499267578 33.914280124034654, -223.3605499267578 10.428558722190402, -223.3605499267578 -57.400001525878906"></path></g><g transform="translate(0, -37.400001525878906)" class="annotation-group text"></g><g transform="translate(-59.96953201293945, -37.400001525878906)" class="label-group text"><g transform="translate(0,-9.199999809265137)" style="font-weight: bolder" class="label"><g><rect style="stroke: none" class="background"></rect><text style="" y="-10.1"><tspan font-weight="" dy="1.1em" y="-0.1em" x="0" class="text-outer-tspan"><tspan font-weight="" class="text-inner-tspan" font-style="normal">WeatherService</tspan></tspan></text></g></g></g><g transform="translate(-211.3605499267578, 4.999998092651367)" class="members-group text"></g><g transform="translate(-211.3605499267578, 34.99999809265137)" class="methods-group text"><g transform="translate(0,-9.199999809265137)" style="" class="label"><g><rect style="stroke: none" class="background"></rect><text style="" y="-10.1"><tspan dy="1.1em" y="-0.1em" x="0" class="text-outer-tspan"><tspan font-weight="normal" class="text-inner-tspan" font-style="normal">+getWeatherByLocation(loc:</tspan><tspan font-weight="normal" class="text-inner-tspan" font-style="normal"> Location)</tspan><tspan font-weight="normal" class="text-inner-tspan" font-style="normal"> :</tspan><tspan font-weight="normal" class="text-inner-tspan" font-style="normal"> :</tspan><tspan font-weight="normal" class="text-inner-tspan" font-style="normal"> Weather</tspan></tspan></text></g></g></g><g style="" class="divider"><path style="" fill="none" stroke-width="1.3" stroke="#1a468b" d="M-223.3605499267578 -15.000001907348633 C-72.5203727302646 -15.000001907348633, 78.31980446622862 -15.000001907348633, 223.3605499267578 -15.000001907348633 M-223.3605499267578 -15.000001907348633 C-72.29125580889854 -15.000001907348633, 78.77803830896073 -15.000001907348633, 223.3605499267578 -15.000001907348633"></path></g><g style="" class="divider"><path style="" fill="none" stroke-width="1.3" stroke="#1a468b" d="M-223.3605499267578 8.999998092651367 C-129.07585493434783 8.999998092651367, -34.79115994193782 8.999998092651367, 223.3605499267578 8.999998092651367 M-223.3605499267578 8.999998092651367 C-129.9836445064082 8.999998092651367, -36.60673908605861 8.999998092651367, 223.3605499267578 8.999998092651367"></path></g></g><g transform="translate(231.3605499267578, 871.4000129699707)" id="classId-LocationService-273" class="node default"><g class="basic label-container"><path style="" fill="#ffffff" stroke-width="0" stroke="none" d="M-203.1277313232422 -68.10000228881836 L203.1277313232422 -68.10000228881836 L203.1277313232422 68.10000228881836 L-203.1277313232422 68.10000228881836"></path><path style="" fill="none" stroke-width="1.3" stroke="#1a468b" d="M-203.1277313232422 -68.10000228881836 C-88.04359696288809 -68.10000228881836, 27.04053739746601 -68.10000228881836, 203.1277313232422 -68.10000228881836 M-203.1277313232422 -68.10000228881836 C-63.92352604323483 -68.10000228881836, 75.28067923677253 -68.10000228881836, 203.1277313232422 -68.10000228881836 M203.1277313232422 -68.10000228881836 C203.1277313232422 -38.95726590197064, 203.1277313232422 -9.81452951512292, 203.1277313232422 68.10000228881836 M203.1277313232422 -68.10000228881836 C203.1277313232422 -38.596833778075236, 203.1277313232422 -9.093665267332106, 203.1277313232422 68.10000228881836 M203.1277313232422 68.10000228881836 C41.4952048120918 68.10000228881836, -120.13732169905859 68.10000228881836, -203.1277313232422 68.10000228881836 M203.1277313232422 68.10000228881836 C75.03517486132745 68.10000228881836, -53.05738160058729 68.10000228881836, -203.1277313232422 68.10000228881836 M-203.1277313232422 68.10000228881836 C-203.1277313232422 26.24361315681123, -203.1277313232422 -15.612775975195902, -203.1277313232422 -68.10000228881836 M-203.1277313232422 68.10000228881836 C-203.1277313232422 30.767298568676964, -203.1277313232422 -6.565405151464432, -203.1277313232422 -68.10000228881836"></path></g><g transform="translate(0, -48.10000228881836)" class="annotation-group text"></g><g transform="translate(-59.96796798706055, -48.10000228881836)" class="label-group text"><g transform="translate(0,-9.199999809265137)" style="font-weight: bolder" class="label"><g><rect style="stroke: none" class="background"></rect><text style="" y="-10.1"><tspan font-weight="" dy="1.1em" y="-0.1em" x="0" class="text-outer-tspan"><tspan font-weight="" class="text-inner-tspan" font-style="normal">LocationService</tspan></tspan></text></g></g></g><g transform="translate(-191.1277313232422, -5.700002670288086)" class="members-group text"></g><g transform="translate(-191.1277313232422, 24.299997329711914)" class="methods-group text"><g transform="translate(0,-9.199999809265137)" style="" class="label"><g><rect style="stroke: none" class="background"></rect><text style="" y="-10.1"><tspan dy="1.1em" y="-0.1em" x="0" class="text-outer-tspan"><tspan font-weight="normal" class="text-inner-tspan" font-style="normal">+getCoordinates(address:</tspan><tspan font-weight="normal" class="text-inner-tspan" font-style="normal"> String)</tspan><tspan font-weight="normal" class="text-inner-tspan" font-style="normal"> :</tspan><tspan font-weight="normal" class="text-inner-tspan" font-style="normal"> :</tspan><tspan font-weight="normal" class="text-inner-tspan" font-style="normal"> Location</tspan></tspan></text></g></g><g transform="translate(0,12.199999809265137)" style="" class="label"><g><rect style="stroke: none" class="background"></rect><text style="" y="-10.1"><tspan dy="1.1em" y="-0.1em" x="0" class="text-outer-tspan"><tspan font-weight="normal" class="text-inner-tspan" font-style="normal">+getAddress(lat:</tspan><tspan font-weight="normal" class="text-inner-tspan" font-style="normal"> float,</tspan><tspan font-weight="normal" class="text-inner-tspan" font-style="normal"> lng:</tspan><tspan font-weight="normal" class="text-inner-tspan" font-style="normal"> float)</tspan><tspan font-weight="normal" class="text-inner-tspan" font-style="normal"> :</tspan><tspan font-weight="normal" class="text-inner-tspan" font-style="normal"> :</tspan><tspan font-weight="normal" class="text-inner-tspan" font-style="normal"> String</tspan></tspan></text></g></g></g><g style="" class="divider"><path style="" fill="none" stroke-width="1.3" stroke="#1a468b" d="M-203.1277313232422 -25.700002670288086 C-96.2486531552627 -25.700002670288086, 10.630425012716785 -25.700002670288086, 203.1277313232422 -25.700002670288086 M-203.1277313232422 -25.700002670288086 C-73.06821276770108 -25.700002670288086, 56.99130578784002 -25.700002670288086, 203.1277313232422 -25.700002670288086"></path></g><g style="" class="divider"><path style="" fill="none" stroke-width="1.3" stroke="#1a468b" d="M-203.1277313232422 -1.700002670288086 C-81.66865383800801 -1.700002670288086, 39.79042364722616 -1.700002670288086, 203.1277313232422 -1.700002670288086 M-203.1277313232422 -1.700002670288086 C-118.8482206977923 -1.700002670288086, -34.56871007234241 -1.700002670288086, 203.1277313232422 -1.700002670288086"></path></g></g><g transform="translate(231.3605499267578, 502.00000762939453)" id="classId-EmailService-274" class="node default"><g class="basic label-container"><path style="" fill="#ffffff" stroke-width="0" stroke="none" d="M-162.06289672851562 -57.400001525878906 L162.06289672851562 -57.400001525878906 L162.06289672851562 57.400001525878906 L-162.06289672851562 57.400001525878906"></path><path style="" fill="none" stroke-width="1.3" stroke="#1a468b" d="M-162.06289672851562 -57.400001525878906 C-45.99746104593416 -57.400001525878906, 70.0679746366473 -57.400001525878906, 162.06289672851562 -57.400001525878906 M-162.06289672851562 -57.400001525878906 C-72.43477961249441 -57.400001525878906, 17.193337503526806 -57.400001525878906, 162.06289672851562 -57.400001525878906 M162.06289672851562 -57.400001525878906 C162.06289672851562 -17.23851137915654, 162.06289672851562 22.922978767565823, 162.06289672851562 57.400001525878906 M162.06289672851562 -57.400001525878906 C162.06289672851562 -15.556096019741751, 162.06289672851562 26.287809486395403, 162.06289672851562 57.400001525878906 M162.06289672851562 57.400001525878906 C46.66727774766177 57.400001525878906, -68.72834123319208 57.400001525878906, -162.06289672851562 57.400001525878906 M162.06289672851562 57.400001525878906 C38.98188426985337 57.400001525878906, -84.09912818880889 57.400001525878906, -162.06289672851562 57.400001525878906 M-162.06289672851562 57.400001525878906 C-162.06289672851562 23.262493067135914, -162.06289672851562 -10.875015391607079, -162.06289672851562 -57.400001525878906 M-162.06289672851562 57.400001525878906 C-162.06289672851562 17.612200189358234, -162.06289672851562 -22.17560114716244, -162.06289672851562 -57.400001525878906"></path></g><g transform="translate(0, -37.400001525878906)" class="annotation-group text"></g><g transform="translate(-48.28828048706055, -37.400001525878906)" class="label-group text"><g transform="translate(0,-9.199999809265137)" style="font-weight: bolder" class="label"><g><rect style="stroke: none" class="background"></rect><text style="" y="-10.1"><tspan font-weight="" dy="1.1em" y="-0.1em" x="0" class="text-outer-tspan"><tspan font-weight="" class="text-inner-tspan" font-style="normal">EmailService</tspan></tspan></text></g></g></g><g transform="translate(-150.06289672851562, 4.999998092651367)" class="members-group text"></g><g transform="translate(-150.06289672851562, 34.99999809265137)" class="methods-group text"><g transform="translate(0,-9.199999809265137)" style="" class="label"><g><rect style="stroke: none" class="background"></rect><text style="" y="-10.1"><tspan dy="1.1em" y="-0.1em" x="0" class="text-outer-tspan"><tspan font-weight="normal" class="text-inner-tspan" font-style="normal">+sendAlertEmail(disaster:</tspan><tspan font-weight="normal" class="text-inner-tspan" font-style="normal"> Disaster)</tspan></tspan></text></g></g></g><g style="" class="divider"><path style="" fill="none" stroke-width="1.3" stroke="#1a468b" d="M-162.06289672851562 -15.000001907348633 C-91.05728455702149 -15.000001907348633, -20.051672385527354 -15.000001907348633, 162.06289672851562 -15.000001907348633 M-162.06289672851562 -15.000001907348633 C-40.825314897647644 -15.000001907348633, 80.41226693322034 -15.000001907348633, 162.06289672851562 -15.000001907348633"></path></g><g style="" class="divider"><path style="" fill="none" stroke-width="1.3" stroke="#1a468b" d="M-162.06289672851562 8.999998092651367 C-94.6520736848083 8.999998092651367, -27.241250641100976 8.999998092651367, 162.06289672851562 8.999998092651367 M-162.06289672851562 8.999998092651367 C-65.38477496587316 8.999998092651367, 31.2933467967693 8.999998092651367, 162.06289672851562 8.999998092651367"></path></g></g></g></g></g></svg>