<svg aria-roledescription="class" role="graphics-document document" viewBox="0.00000762939453125 0 1088.285888671875 641" style="max-width: 1088.285888671875px;" class="classDiagram" xmlns="http://www.w3.org/2000/svg" width="100%" id="mermaidSvgId"><style>#mermaidSvgId{font-family:"trebuchet ms",verdana,arial,sans-serif;font-size:16px;fill:#0a0f14;}@keyframes edge-animation-frame{from{stroke-dashoffset:0;}}@keyframes dash{to{stroke-dashoffset:0;}}#mermaidSvgId .edge-animation-slow{stroke-dasharray:9,5!important;stroke-dashoffset:900;animation:dash 50s linear infinite;stroke-linecap:round;}#mermaidSvgId .edge-animation-fast{stroke-dasharray:9,5!important;stroke-dashoffset:900;animation:dash 20s linear infinite;stroke-linecap:round;}#mermaidSvgId .error-icon{fill:#ffebee;}#mermaidSvgId .error-text{fill:#c62828;stroke:#c62828;}#mermaidSvgId .edge-thickness-normal{stroke-width:1px;}#mermaidSvgId .edge-thickness-thick{stroke-width:3.5px;}#mermaidSvgId .edge-pattern-solid{stroke-dasharray:0;}#mermaidSvgId .edge-thickness-invisible{stroke-width:0;fill:none;}#mermaidSvgId .edge-pattern-dashed{stroke-dasharray:3;}#mermaidSvgId .edge-pattern-dotted{stroke-dasharray:2;}#mermaidSvgId .marker{fill:#0a0f14;stroke:#0a0f14;}#mermaidSvgId .marker.cross{stroke:#0a0f14;}#mermaidSvgId svg{font-family:"trebuchet ms",verdana,arial,sans-serif;font-size:16px;}#mermaidSvgId p{margin:0;}#mermaidSvgId g.classGroup text{fill:#1a468b;stroke:none;font-family:"trebuchet ms",verdana,arial,sans-serif;font-size:10px;}#mermaidSvgId g.classGroup text .title{font-weight:bolder;}#mermaidSvgId .nodeLabel,#mermaidSvgId .edgeLabel{color:#0a0f14;}#mermaidSvgId .edgeLabel .label rect{fill:#ffffff;}#mermaidSvgId .label text{fill:#0a0f14;}#mermaidSvgId .labelBkg{background:#ffffff;}#mermaidSvgId .edgeLabel .label span{background:#ffffff;}#mermaidSvgId .classTitle{font-weight:bolder;}#mermaidSvgId .node rect,#mermaidSvgId .node circle,#mermaidSvgId .node ellipse,#mermaidSvgId .node polygon,#mermaidSvgId .node path{fill:#ffffff;stroke:#1a468b;stroke-width:1px;}#mermaidSvgId .divider{stroke:#1a468b;stroke-width:1;}#mermaidSvgId g.clickable{cursor:pointer;}#mermaidSvgId g.classGroup rect{fill:#ffffff;stroke:#1a468b;}#mermaidSvgId g.classGroup line{stroke:#1a468b;stroke-width:1;}#mermaidSvgId .classLabel .box{stroke:none;stroke-width:0;fill:#ffffff;opacity:0.5;}#mermaidSvgId .classLabel .label{fill:#1a468b;font-size:10px;}#mermaidSvgId .relation{stroke:#0a0f14;stroke-width:1;fill:none;}#mermaidSvgId .dashed-line{stroke-dasharray:3;}#mermaidSvgId .dotted-line{stroke-dasharray:1 2;}#mermaidSvgId #compositionStart,#mermaidSvgId .composition{fill:#0a0f14!important;stroke:#0a0f14!important;stroke-width:1;}#mermaidSvgId #compositionEnd,#mermaidSvgId .composition{fill:#0a0f14!important;stroke:#0a0f14!important;stroke-width:1;}#mermaidSvgId #dependencyStart,#mermaidSvgId .dependency{fill:#0a0f14!important;stroke:#0a0f14!important;stroke-width:1;}#mermaidSvgId #dependencyStart,#mermaidSvgId .dependency{fill:#0a0f14!important;stroke:#0a0f14!important;stroke-width:1;}#mermaidSvgId #extensionStart,#mermaidSvgId .extension{fill:transparent!important;stroke:#0a0f14!important;stroke-width:1;}#mermaidSvgId #extensionEnd,#mermaidSvgId .extension{fill:transparent!important;stroke:#0a0f14!important;stroke-width:1;}#mermaidSvgId #aggregationStart,#mermaidSvgId .aggregation{fill:transparent!important;stroke:#0a0f14!important;stroke-width:1;}#mermaidSvgId #aggregationEnd,#mermaidSvgId .aggregation{fill:transparent!important;stroke:#0a0f14!important;stroke-width:1;}#mermaidSvgId #lollipopStart,#mermaidSvgId .lollipop{fill:#ffffff!important;stroke:#0a0f14!important;stroke-width:1;}#mermaidSvgId #lollipopEnd,#mermaidSvgId .lollipop{fill:#ffffff!important;stroke:#0a0f14!important;stroke-width:1;}#mermaidSvgId .edgeTerminals{font-size:11px;line-height:initial;}#mermaidSvgId .classTitleText{text-anchor:middle;font-size:18px;fill:#0a0f14;}#mermaidSvgId :root{--mermaid-font-family:"trebuchet ms",verdana,arial,sans-serif;}</style><g><defs><marker orient="auto" markerHeight="240" markerWidth="190" refY="7" refX="18" class="marker aggregation class" id="mermaidSvgId_class-aggregationStart"><path d="M 18,7 L9,13 L1,7 L9,1 Z"></path></marker></defs><defs><marker orient="auto" markerHeight="28" markerWidth="20" refY="7" refX="1" class="marker aggregation class" id="mermaidSvgId_class-aggregationEnd"><path d="M 18,7 L9,13 L1,7 L9,1 Z"></path></marker></defs><defs><marker orient="auto" markerHeight="240" markerWidth="190" refY="7" refX="18" class="marker extension class" id="mermaidSvgId_class-extensionStart"><path d="M 1,7 L18,13 V 1 Z"></path></marker></defs><defs><marker orient="auto" markerHeight="28" markerWidth="20" refY="7" refX="1" class="marker extension class" id="mermaidSvgId_class-extensionEnd"><path d="M 1,1 V 13 L18,7 Z"></path></marker></defs><defs><marker orient="auto" markerHeight="240" markerWidth="190" refY="7" refX="18" class="marker composition class" id="mermaidSvgId_class-compositionStart"><path d="M 18,7 L9,13 L1,7 L9,1 Z"></path></marker></defs><defs><marker orient="auto" markerHeight="28" markerWidth="20" refY="7" refX="1" class="marker composition class" id="mermaidSvgId_class-compositionEnd"><path d="M 18,7 L9,13 L1,7 L9,1 Z"></path></marker></defs><defs><marker orient="auto" markerHeight="240" markerWidth="190" refY="7" refX="6" class="marker dependency class" id="mermaidSvgId_class-dependencyStart"><path d="M 5,7 L9,13 L1,7 L9,1 Z"></path></marker></defs><defs><marker orient="auto" markerHeight="28" markerWidth="20" refY="7" refX="13" class="marker dependency class" id="mermaidSvgId_class-dependencyEnd"><path d="M 18,7 L9,13 L14,7 L9,1 Z"></path></marker></defs><defs><marker orient="auto" markerHeight="240" markerWidth="190" refY="7" refX="13" class="marker lollipop class" id="mermaidSvgId_class-lollipopStart"><circle r="6" cy="7" cx="7" fill="transparent" stroke="black"></circle></marker></defs><defs><marker orient="auto" markerHeight="240" markerWidth="190" refY="7" refX="1" class="marker lollipop class" id="mermaidSvgId_class-lollipopEnd"><circle r="6" cy="7" cx="7" fill="transparent" stroke="black"></circle></marker></defs><g class="root"><g class="clusters"></g><g class="edgePaths"><path marker-end="url(#mermaidSvgId_class-dependencyEnd)" style=";" class="edge-thickness-normal edge-pattern-solid relation" id="id_Dashboard_Disaster_1" d="M311.912,165.6L306.737,169.767C301.561,173.933,291.21,182.267,286.034,189.6C280.859,196.933,280.859,203.267,280.859,206.433L280.859,209.6"></path><path marker-end="url(#mermaidSvgId_class-dependencyEnd)" style=";" class="edge-thickness-normal edge-pattern-solid relation" id="id_Dashboard_Weather_2" d="M498.647,165.6L503.345,169.767C508.043,173.933,517.44,182.267,556.477,197.686C595.515,213.105,664.194,235.61,698.533,246.863L732.873,258.115"></path><path marker-end="url(#mermaidSvgId_class-dependencyEnd)" style=";" class="edge-thickness-normal edge-pattern-solid relation" id="id_Disaster_Location_3" d="M280.859,410L280.859,414.167C280.859,418.333,280.859,426.667,329.564,444.492C378.27,462.316,475.682,489.633,524.387,503.291L573.093,516.949"></path><path marker-end="url(#mermaidSvgId_class-dependencyEnd)" style=";" class="edge-thickness-normal edge-pattern-solid relation" id="id_Weather_Location_4" d="M899.753,410L899.753,414.167C899.753,418.333,899.753,426.667,880.366,440.602C860.98,454.537,822.206,474.075,802.82,483.843L783.433,493.612"></path><path marker-end="url(#mermaidSvgId_class-dependencyEnd)" style=";" class="edge-thickness-normal edge-pattern-solid relation" id="id_DisasterService_Disaster_5" d="M131.923,165.6L131.923,169.767C131.923,173.933,131.923,182.267,136.229,189.966C140.534,197.665,149.144,204.729,153.449,208.262L157.755,211.794"></path><path marker-end="url(#mermaidSvgId_class-dependencyEnd)" style=";" class="edge-thickness-normal edge-pattern-solid relation" id="id_WeatherService_Weather_6" d="M947.151,144.2L947.151,151.933C947.151,159.667,947.151,175.133,945.897,186.101C944.642,197.069,942.133,203.537,940.879,206.772L939.624,210.006"></path><path marker-end="url(#mermaidSvgId_class-dependencyEnd)" style=";" class="edge-thickness-normal edge-pattern-solid relation" id="id_EmailService_Disaster_7" d="M663.879,144.2L663.879,151.933C663.879,159.667,663.879,175.133,639.558,190.626C615.238,206.118,566.598,221.637,542.277,229.396L517.957,237.155"></path></g><g class="edgeLabels"><g><rect style="stroke: none" class="background"></rect></g><g><rect style="stroke: none" class="background"></rect></g><g><rect style="stroke: none" class="background"></rect></g><g><rect style="stroke: none" class="background"></rect></g><g><rect style="stroke: none" class="background"></rect></g><g><rect style="stroke: none" class="background"></rect></g><g><rect style="stroke: none" class="background"></rect></g><g class="edgeLabel"><g transform="translate(0, 0)" class="label"><text y="-10.1"><tspan dy="1.1em" y="-0.1em" x="0" class="text-outer-tspan"></tspan></text></g></g><g class="edgeLabel"><g transform="translate(0, 0)" class="label"><text y="-10.1"><tspan dy="1.1em" y="-0.1em" x="0" class="text-outer-tspan"></tspan></text></g></g><g class="edgeLabel"><g transform="translate(0, 0)" class="label"><text y="-10.1"><tspan dy="1.1em" y="-0.1em" x="0" class="text-outer-tspan"></tspan></text></g></g><g class="edgeLabel"><g transform="translate(0, 0)" class="label"><text y="-10.1"><tspan dy="1.1em" y="-0.1em" x="0" class="text-outer-tspan"></tspan></text></g></g><g class="edgeLabel"><g transform="translate(0, 0)" class="label"><text y="-10.1"><tspan dy="1.1em" y="-0.1em" x="0" class="text-outer-tspan"></tspan></text></g></g><g class="edgeLabel"><g transform="translate(0, 0)" class="label"><text y="-10.1"><tspan dy="1.1em" y="-0.1em" x="0" class="text-outer-tspan"></tspan></text></g></g><g class="edgeLabel"><g transform="translate(0, 0)" class="label"><text y="-10.1"><tspan dy="1.1em" y="-0.1em" x="0" class="text-outer-tspan"></tspan></text></g></g></g><g class="nodes"><g transform="translate(409.7937545776367, 86.80000305175781)" id="classId-Dashboard-331" class="node default"><g class="basic label-container"><path style="" fill="#ffffff" stroke-width="0" stroke="none" d="M-103.9468765258789 -78.80000305175781 L103.9468765258789 -78.80000305175781 L103.9468765258789 78.80000305175781 L-103.9468765258789 78.80000305175781"></path><path style="" fill="none" stroke-width="1.3" stroke="#1a468b" d="M-103.9468765258789 -78.80000305175781 C-48.59177108283462 -78.80000305175781, 6.763334360209669 -78.80000305175781, 103.9468765258789 -78.80000305175781 M-103.9468765258789 -78.80000305175781 C-24.66157687056692 -78.80000305175781, 54.62372278474507 -78.80000305175781, 103.9468765258789 -78.80000305175781 M103.9468765258789 -78.80000305175781 C103.9468765258789 -18.18371363858006, 103.9468765258789 42.432575774597694, 103.9468765258789 78.80000305175781 M103.9468765258789 -78.80000305175781 C103.9468765258789 -40.74072671615007, 103.9468765258789 -2.68145038054233, 103.9468765258789 78.80000305175781 M103.9468765258789 78.80000305175781 C61.11189956306713 78.80000305175781, 18.276922600255347 78.80000305175781, -103.9468765258789 78.80000305175781 M103.9468765258789 78.80000305175781 C22.864533967178218 78.80000305175781, -58.21780859152247 78.80000305175781, -103.9468765258789 78.80000305175781 M-103.9468765258789 78.80000305175781 C-103.9468765258789 15.909174036792237, -103.9468765258789 -46.98165497817334, -103.9468765258789 -78.80000305175781 M-103.9468765258789 78.80000305175781 C-103.9468765258789 37.47200424915335, -103.9468765258789 -3.8559945534511115, -103.9468765258789 -78.80000305175781"></path></g><g transform="translate(0, -58.80000305175781)" class="annotation-group text"></g><g transform="translate(-39.09375, -58.80000305175781)" class="label-group text"><g transform="translate(0,-9.199999809265137)" style="font-weight: bolder" class="label"><g><rect style="stroke: none" class="background"></rect><text style="" y="-10.1"><tspan font-weight="" dy="1.1em" y="-0.1em" x="0" class="text-outer-tspan"><tspan font-weight="" class="text-inner-tspan" font-style="normal">Dashboard</tspan></tspan></text></g></g></g><g transform="translate(-91.9468765258789, -16.40000343322754)" class="members-group text"></g><g transform="translate(-91.9468765258789, 13.599996566772461)" class="methods-group text"><g transform="translate(0,-9.199999809265137)" style="" class="label"><g><rect style="stroke: none" class="background"></rect><text style="" y="-10.1"><tspan dy="1.1em" y="-0.1em" x="0" class="text-outer-tspan"><tspan font-weight="normal" class="text-inner-tspan" font-style="normal">+showAlert()</tspan></tspan></text></g></g><g transform="translate(0,12.199999809265137)" style="" class="label"><g><rect style="stroke: none" class="background"></rect><text style="" y="-10.1"><tspan dy="1.1em" y="-0.1em" x="0" class="text-outer-tspan"><tspan font-weight="normal" class="text-inner-tspan" font-style="normal">+showSafeMessage()</tspan></tspan></text></g></g><g transform="translate(0,33.59999942779541)" style="" class="label"><g><rect style="stroke: none" class="background"></rect><text style="" y="-10.1"><tspan dy="1.1em" y="-0.1em" x="0" class="text-outer-tspan"><tspan font-weight="normal" class="text-inner-tspan" font-style="normal">+displayWeather()</tspan></tspan></text></g></g></g><g style="" class="divider"><path style="" fill="none" stroke-width="1.3" stroke="#1a468b" d="M-103.9468765258789 -36.40000343322754 C-28.29166691936217 -36.40000343322754, 47.36354268715456 -36.40000343322754, 103.9468765258789 -36.40000343322754 M-103.9468765258789 -36.40000343322754 C-27.4316808429609 -36.40000343322754, 49.083514839957104 -36.40000343322754, 103.9468765258789 -36.40000343322754"></path></g><g style="" class="divider"><path style="" fill="none" stroke-width="1.3" stroke="#1a468b" d="M-103.9468765258789 -12.400003433227539 C-33.107820434465836 -12.400003433227539, 37.731235656947234 -12.400003433227539, 103.9468765258789 -12.400003433227539 M-103.9468765258789 -12.400003433227539 C-44.4242476580419 -12.400003433227539, 15.098381209795107 -12.400003433227539, 103.9468765258789 -12.400003433227539"></path></g></g><g transform="translate(678.472469329834, 546.5)" id="classId-Location-332" class="node default"><g class="basic label-container"><path style="" fill="#ffffff" stroke-width="0" stroke="none" d="M-99.60234069824219 -86.5 L99.60234069824219 -86.5 L99.60234069824219 86.5 L-99.60234069824219 86.5"></path><path style="" fill="none" stroke-width="1.3" stroke="#1a468b" d="M-99.60234069824219 -86.5 C-56.53129385520854 -86.5, -13.46024701217489 -86.5, 99.60234069824219 -86.5 M-99.60234069824219 -86.5 C-53.17535074390541 -86.5, -6.748360789568636 -86.5, 99.60234069824219 -86.5 M99.60234069824219 -86.5 C99.60234069824219 -17.451299477239715, 99.60234069824219 51.59740104552057, 99.60234069824219 86.5 M99.60234069824219 -86.5 C99.60234069824219 -33.654951373872336, 99.60234069824219 19.190097252255327, 99.60234069824219 86.5 M99.60234069824219 86.5 C39.80994091598596 86.5, -19.982458866270264 86.5, -99.60234069824219 86.5 M99.60234069824219 86.5 C56.32057906796069 86.5, 13.0388174376792 86.5, -99.60234069824219 86.5 M-99.60234069824219 86.5 C-99.60234069824219 43.312914393418545, -99.60234069824219 0.12582878683708998, -99.60234069824219 -86.5 M-99.60234069824219 86.5 C-99.60234069824219 21.26139248216188, -99.60234069824219 -43.97721503567624, -99.60234069824219 -86.5"></path></g><g transform="translate(0, -66.5)" class="annotation-group text"></g><g transform="translate(-32.118751525878906, -66.5)" class="label-group text"><g transform="translate(0,-9.199999809265137)" style="font-weight: bolder" class="label"><g><rect style="stroke: none" class="background"></rect><text style="" y="-10.1"><tspan font-weight="" dy="1.1em" y="-0.1em" x="0" class="text-outer-tspan"><tspan font-weight="" class="text-inner-tspan" font-style="normal">Location</tspan></tspan></text></g></g></g><g transform="translate(-87.60234069824219, -24.100000381469727)" class="members-group text"><g transform="translate(0,-9.199999809265137)" style="" class="label"><g><rect style="stroke: none" class="background"></rect><text style="" y="-10.1"><tspan dy="1.1em" y="-0.1em" x="0" class="text-outer-tspan"><tspan font-weight="normal" class="text-inner-tspan" font-style="normal">+latitude:</tspan><tspan font-weight="normal" class="text-inner-tspan" font-style="normal"> 18.5204</tspan></tspan></text></g></g><g transform="translate(0,12.199999809265137)" style="" class="label"><g><rect style="stroke: none" class="background"></rect><text style="" y="-10.1"><tspan dy="1.1em" y="-0.1em" x="0" class="text-outer-tspan"><tspan font-weight="normal" class="text-inner-tspan" font-style="normal">+longitude:</tspan><tspan font-weight="normal" class="text-inner-tspan" font-style="normal"> 73.8567</tspan></tspan></text></g></g><g transform="translate(0,33.59999942779541)" style="" class="label"><g><rect style="stroke: none" class="background"></rect><text style="" y="-10.1"><tspan dy="1.1em" y="-0.1em" x="0" class="text-outer-tspan"><tspan font-weight="normal" class="text-inner-tspan" font-style="normal">+city:</tspan><tspan font-weight="normal" class="text-inner-tspan" font-style="normal"> "Pune"</tspan></tspan></text></g></g><g transform="translate(0,54.999999046325684)" style="" class="label"><g><rect style="stroke: none" class="background"></rect><text style="" y="-10.1"><tspan dy="1.1em" y="-0.1em" x="0" class="text-outer-tspan"><tspan font-weight="normal" class="text-inner-tspan" font-style="normal">+country:</tspan><tspan font-weight="normal" class="text-inner-tspan" font-style="normal"> "India"</tspan></tspan></text></g></g></g><g transform="translate(-87.60234069824219, 82.49999809265137)" class="methods-group text"></g><g style="" class="divider"><path style="" fill="none" stroke-width="1.3" stroke="#1a468b" d="M-99.60234069824219 -44.10000038146973 C-40.93866016355658 -44.10000038146973, 17.725020371129034 -44.10000038146973, 99.60234069824219 -44.10000038146973 M-99.60234069824219 -44.10000038146973 C-38.50927141281684 -44.10000038146973, 22.583797872608514 -44.10000038146973, 99.60234069824219 -44.10000038146973"></path></g><g style="" class="divider"><path style="" fill="none" stroke-width="1.3" stroke="#1a468b" d="M-99.60234069824219 62.49999809265137 C-27.52803209964567 62.49999809265137, 44.546276498950846 62.49999809265137, 99.60234069824219 62.49999809265137 M-99.60234069824219 62.49999809265137 C-33.848960786416185 62.49999809265137, 31.904419125409817 62.49999809265137, 99.60234069824219 62.49999809265137"></path></g></g><g transform="translate(899.7531318664551, 312.8000030517578)" id="classId-Weather-333" class="node default"><g class="basic label-container"><path style="" fill="#ffffff" stroke-width="0" stroke="none" d="M-161.17889404296875 -97.19999694824219 L161.17889404296875 -97.19999694824219 L161.17889404296875 97.19999694824219 L-161.17889404296875 97.19999694824219"></path><path style="" fill="none" stroke-width="1.3" stroke="#1a468b" d="M-161.17889404296875 -97.19999694824219 C-38.771161658525884 -97.19999694824219, 83.63657072591698 -97.19999694824219, 161.17889404296875 -97.19999694824219 M-161.17889404296875 -97.19999694824219 C-94.49000129563738 -97.19999694824219, -27.80110854830602 -97.19999694824219, 161.17889404296875 -97.19999694824219 M161.17889404296875 -97.19999694824219 C161.17889404296875 -57.275218708866156, 161.17889404296875 -17.350440469490124, 161.17889404296875 97.19999694824219 M161.17889404296875 -97.19999694824219 C161.17889404296875 -47.83570813738502, 161.17889404296875 1.528580673472149, 161.17889404296875 97.19999694824219 M161.17889404296875 97.19999694824219 C73.93492360936266 97.19999694824219, -13.309046824243438 97.19999694824219, -161.17889404296875 97.19999694824219 M161.17889404296875 97.19999694824219 C48.080893481773685 97.19999694824219, -65.01710707942138 97.19999694824219, -161.17889404296875 97.19999694824219 M-161.17889404296875 97.19999694824219 C-161.17889404296875 46.294390141240235, -161.17889404296875 -4.611216665761717, -161.17889404296875 -97.19999694824219 M-161.17889404296875 97.19999694824219 C-161.17889404296875 36.89785296973494, -161.17889404296875 -23.404291008772304, -161.17889404296875 -97.19999694824219"></path></g><g transform="translate(0, -77.19999694824219)" class="annotation-group text"></g><g transform="translate(-32.296875, -77.19999694824219)" class="label-group text"><g transform="translate(0,-9.199999809265137)" style="font-weight: bolder" class="label"><g><rect style="stroke: none" class="background"></rect><text style="" y="-10.1"><tspan font-weight="" dy="1.1em" y="-0.1em" x="0" class="text-outer-tspan"><tspan font-weight="" class="text-inner-tspan" font-style="normal">Weather</tspan></tspan></text></g></g></g><g transform="translate(-149.17889404296875, -34.799997329711914)" class="members-group text"><g transform="translate(0,-9.199999809265137)" style="" class="label"><g><rect style="stroke: none" class="background"></rect><text style="" y="-10.1"><tspan dy="1.1em" y="-0.1em" x="0" class="text-outer-tspan"><tspan font-weight="normal" class="text-inner-tspan" font-style="normal">+temperature:</tspan><tspan font-weight="normal" class="text-inner-tspan" font-style="normal"> 34.0</tspan></tspan></text></g></g><g transform="translate(0,12.199999809265137)" style="" class="label"><g><rect style="stroke: none" class="background"></rect><text style="" y="-10.1"><tspan dy="1.1em" y="-0.1em" x="0" class="text-outer-tspan"><tspan font-weight="normal" class="text-inner-tspan" font-style="normal">+humidity:</tspan><tspan font-weight="normal" class="text-inner-tspan" font-style="normal"> 55</tspan></tspan></text></g></g><g transform="translate(0,33.59999942779541)" style="" class="label"><g><rect style="stroke: none" class="background"></rect><text style="" y="-10.1"><tspan dy="1.1em" y="-0.1em" x="0" class="text-outer-tspan"><tspan font-weight="normal" class="text-inner-tspan" font-style="normal">+windSpeed:</tspan><tspan font-weight="normal" class="text-inner-tspan" font-style="normal"> 12.4</tspan></tspan></text></g></g><g transform="translate(0,54.999999046325684)" style="" class="label"><g><rect style="stroke: none" class="background"></rect><text style="" y="-10.1"><tspan dy="1.1em" y="-0.1em" x="0" class="text-outer-tspan"><tspan font-weight="normal" class="text-inner-tspan" font-style="normal">+summary:</tspan><tspan font-weight="normal" class="text-inner-tspan" font-style="normal"> "Partly</tspan><tspan font-weight="normal" class="text-inner-tspan" font-style="normal"> cloudy</tspan><tspan font-weight="normal" class="text-inner-tspan" font-style="normal"> and</tspan><tspan font-weight="normal" class="text-inner-tspan" font-style="normal"> windy"</tspan></tspan></text></g></g><g transform="translate(0,76.39999866485596)" style="" class="label"><g><rect style="stroke: none" class="background"></rect><text style="" y="-10.1"><tspan dy="1.1em" y="-0.1em" x="0" class="text-outer-tspan"><tspan font-weight="normal" class="text-inner-tspan" font-style="normal">+time:</tspan><tspan font-weight="normal" class="text-inner-tspan" font-style="normal"> "2025-05-30T10:00:00Z"</tspan></tspan></text></g></g></g><g transform="translate(-149.17889404296875, 93.20001029968262)" class="methods-group text"></g><g style="" class="divider"><path style="" fill="none" stroke-width="1.3" stroke="#1a468b" d="M-161.17889404296875 -54.799997329711914 C-76.47363088589773 -54.799997329711914, 8.231632271173282 -54.799997329711914, 161.17889404296875 -54.799997329711914 M-161.17889404296875 -54.799997329711914 C-83.50122722939435 -54.799997329711914, -5.823560415819941 -54.799997329711914, 161.17889404296875 -54.799997329711914"></path></g><g style="" class="divider"><path style="" fill="none" stroke-width="1.3" stroke="#1a468b" d="M-161.17889404296875 73.20001029968262 C-90.76246083776182 73.20001029968262, -20.346027632554893 73.20001029968262, 161.17889404296875 73.20001029968262 M-161.17889404296875 73.20001029968262 C-69.53145766148434 73.20001029968262, 22.115978720000072 73.20001029968262, 161.17889404296875 73.20001029968262"></path></g></g><g transform="translate(280.8585968017578, 312.8000030517578)" id="classId-Disaster-334" class="node default"><g class="basic label-container"><path style="" fill="#ffffff" stroke-width="0" stroke="none" d="M-231.38243103027344 -97.19999694824219 L231.38243103027344 -97.19999694824219 L231.38243103027344 97.19999694824219 L-231.38243103027344 97.19999694824219"></path><path style="" fill="none" stroke-width="1.3" stroke="#1a468b" d="M-231.38243103027344 -97.19999694824219 C-98.3236823917976 -97.19999694824219, 34.73506624667823 -97.19999694824219, 231.38243103027344 -97.19999694824219 M-231.38243103027344 -97.19999694824219 C-61.51370948328665 -97.19999694824219, 108.35501206370014 -97.19999694824219, 231.38243103027344 -97.19999694824219 M231.38243103027344 -97.19999694824219 C231.38243103027344 -21.95664979195969, 231.38243103027344 53.286697364322805, 231.38243103027344 97.19999694824219 M231.38243103027344 -97.19999694824219 C231.38243103027344 -42.707931135657056, 231.38243103027344 11.784134676928076, 231.38243103027344 97.19999694824219 M231.38243103027344 97.19999694824219 C104.50932340193873 97.19999694824219, -22.36378422639598 97.19999694824219, -231.38243103027344 97.19999694824219 M231.38243103027344 97.19999694824219 C63.92259530140436 97.19999694824219, -103.53724042746472 97.19999694824219, -231.38243103027344 97.19999694824219 M-231.38243103027344 97.19999694824219 C-231.38243103027344 23.455518602096603, -231.38243103027344 -50.28895974404898, -231.38243103027344 -97.19999694824219 M-231.38243103027344 97.19999694824219 C-231.38243103027344 29.109405691870876, -231.38243103027344 -38.981185564500436, -231.38243103027344 -97.19999694824219"></path></g><g transform="translate(0, -77.19999694824219)" class="annotation-group text"></g><g transform="translate(-30.049219131469727, -77.19999694824219)" class="label-group text"><g transform="translate(0,-9.199999809265137)" style="font-weight: bolder" class="label"><g><rect style="stroke: none" class="background"></rect><text style="" y="-10.1"><tspan font-weight="" dy="1.1em" y="-0.1em" x="0" class="text-outer-tspan"><tspan font-weight="" class="text-inner-tspan" font-style="normal">Disaster</tspan></tspan></text></g></g></g><g transform="translate(-219.38243103027344, -34.799997329711914)" class="members-group text"><g transform="translate(0,-9.199999809265137)" style="" class="label"><g><rect style="stroke: none" class="background"></rect><text style="" y="-10.1"><tspan dy="1.1em" y="-0.1em" x="0" class="text-outer-tspan"><tspan font-weight="normal" class="text-inner-tspan" font-style="normal">+type:</tspan><tspan font-weight="normal" class="text-inner-tspan" font-style="normal"> "Earthquake"</tspan></tspan></text></g></g><g transform="translate(0,12.199999809265137)" style="" class="label"><g><rect style="stroke: none" class="background"></rect><text style="" y="-10.1"><tspan dy="1.1em" y="-0.1em" x="0" class="text-outer-tspan"><tspan font-weight="normal" class="text-inner-tspan" font-style="normal">+source:</tspan><tspan font-weight="normal" class="text-inner-tspan" font-style="normal"> "Reddit"</tspan></tspan></text></g></g><g transform="translate(0,33.59999942779541)" style="" class="label"><g><rect style="stroke: none" class="background"></rect><text style="" y="-10.1"><tspan dy="1.1em" y="-0.1em" x="0" class="text-outer-tspan"><tspan font-weight="normal" class="text-inner-tspan" font-style="normal">+summary:</tspan><tspan font-weight="normal" class="text-inner-tspan" font-style="normal"> "Moderate</tspan><tspan font-weight="normal" class="text-inner-tspan" font-style="normal"> quake</tspan><tspan font-weight="normal" class="text-inner-tspan" font-style="normal"> detected</tspan><tspan font-weight="normal" class="text-inner-tspan" font-style="normal"> 100km</tspan><tspan font-weight="normal" class="text-inner-tspan" font-style="normal"> from</tspan><tspan font-weight="normal" class="text-inner-tspan" font-style="normal"> Pune"</tspan></tspan></text></g></g><g transform="translate(0,54.999999046325684)" style="" class="label"><g><rect style="stroke: none" class="background"></rect><text style="" y="-10.1"><tspan dy="1.1em" y="-0.1em" x="0" class="text-outer-tspan"><tspan font-weight="normal" class="text-inner-tspan" font-style="normal">+time:</tspan><tspan font-weight="normal" class="text-inner-tspan" font-style="normal"> "2025-05-30T09:30:00Z"</tspan></tspan></text></g></g><g transform="translate(0,76.39999866485596)" style="" class="label"><g><rect style="stroke: none" class="background"></rect><text style="" y="-10.1"><tspan dy="1.1em" y="-0.1em" x="0" class="text-outer-tspan"><tspan font-weight="normal" class="text-inner-tspan" font-style="normal">+severity:</tspan><tspan font-weight="normal" class="text-inner-tspan" font-style="normal"> 6</tspan></tspan></text></g></g></g><g transform="translate(-219.38243103027344, 93.20001029968262)" class="methods-group text"></g><g style="" class="divider"><path style="" fill="none" stroke-width="1.3" stroke="#1a468b" d="M-231.38243103027344 -54.799997329711914 C-68.49030476950566 -54.799997329711914, 94.40182149126213 -54.799997329711914, 231.38243103027344 -54.799997329711914 M-231.38243103027344 -54.799997329711914 C-109.02036809814888 -54.799997329711914, 13.34169483397568 -54.799997329711914, 231.38243103027344 -54.799997329711914"></path></g><g style="" class="divider"><path style="" fill="none" stroke-width="1.3" stroke="#1a468b" d="M-231.38243103027344 73.20001029968262 C-124.5848825122916 73.20001029968262, -17.787333994309762 73.20001029968262, 231.38243103027344 73.20001029968262 M-231.38243103027344 73.20001029968262 C-111.7397395390241 73.20001029968262, 7.902951952225237 73.20001029968262, 231.38243103027344 73.20001029968262"></path></g></g><g transform="translate(131.9234390258789, 86.80000305175781)" id="classId-DisasterService-335" class="node default"><g class="basic label-container"><path style="" fill="#ffffff" stroke-width="0" stroke="none" d="M-123.9234390258789 -78.80000305175781 L123.9234390258789 -78.80000305175781 L123.9234390258789 78.80000305175781 L-123.9234390258789 78.80000305175781"></path><path style="" fill="none" stroke-width="1.3" stroke="#1a468b" d="M-123.9234390258789 -78.80000305175781 C-58.03443667913881 -78.80000305175781, 7.8545656676012925 -78.80000305175781, 123.9234390258789 -78.80000305175781 M-123.9234390258789 -78.80000305175781 C-45.670432815848415 -78.80000305175781, 32.58257339418208 -78.80000305175781, 123.9234390258789 -78.80000305175781 M123.9234390258789 -78.80000305175781 C123.9234390258789 -17.789569722995473, 123.9234390258789 43.220863605766866, 123.9234390258789 78.80000305175781 M123.9234390258789 -78.80000305175781 C123.9234390258789 -46.46163268032777, 123.9234390258789 -14.123262308897722, 123.9234390258789 78.80000305175781 M123.9234390258789 78.80000305175781 C64.51918535179857 78.80000305175781, 5.114931677718218 78.80000305175781, -123.9234390258789 78.80000305175781 M123.9234390258789 78.80000305175781 C56.24096699900261 78.80000305175781, -11.441505027873689 78.80000305175781, -123.9234390258789 78.80000305175781 M-123.9234390258789 78.80000305175781 C-123.9234390258789 44.67492284135296, -123.9234390258789 10.549842630948106, -123.9234390258789 -78.80000305175781 M-123.9234390258789 78.80000305175781 C-123.9234390258789 16.5787772045244, -123.9234390258789 -45.64244864270901, -123.9234390258789 -78.80000305175781"></path></g><g transform="translate(0, -58.80000305175781)" class="annotation-group text"></g><g transform="translate(-57.72187423706055, -58.80000305175781)" class="label-group text"><g transform="translate(0,-9.199999809265137)" style="font-weight: bolder" class="label"><g><rect style="stroke: none" class="background"></rect><text style="" y="-10.1"><tspan font-weight="" dy="1.1em" y="-0.1em" x="0" class="text-outer-tspan"><tspan font-weight="" class="text-inner-tspan" font-style="normal">DisasterService</tspan></tspan></text></g></g></g><g transform="translate(-111.9234390258789, -16.40000343322754)" class="members-group text"></g><g transform="translate(-111.9234390258789, 13.599996566772461)" class="methods-group text"><g transform="translate(0,-9.199999809265137)" style="" class="label"><g><rect style="stroke: none" class="background"></rect><text style="" y="-10.1"><tspan dy="1.1em" y="-0.1em" x="0" class="text-outer-tspan"><tspan font-weight="normal" class="text-inner-tspan" font-style="normal">+fetchFromReddit()</tspan></tspan></text></g></g><g transform="translate(0,12.199999809265137)" style="" class="label"><g><rect style="stroke: none" class="background"></rect><text style="" y="-10.1"><tspan dy="1.1em" y="-0.1em" x="0" class="text-outer-tspan"><tspan font-weight="normal" class="text-inner-tspan" font-style="normal">+fetchFromReliefWeb()</tspan></tspan></text></g></g><g transform="translate(0,33.59999942779541)" style="" class="label"><g><rect style="stroke: none" class="background"></rect><text style="" y="-10.1"><tspan dy="1.1em" y="-0.1em" x="0" class="text-outer-tspan"><tspan font-weight="normal" class="text-inner-tspan" font-style="normal">+fetchFromNewsAPI()</tspan></tspan></text></g></g></g><g style="" class="divider"><path style="" fill="none" stroke-width="1.3" stroke="#1a468b" d="M-123.9234390258789 -36.40000343322754 C-41.04361568721582 -36.40000343322754, 41.83620765144727 -36.40000343322754, 123.9234390258789 -36.40000343322754 M-123.9234390258789 -36.40000343322754 C-73.55635668475884 -36.40000343322754, -23.189274343638772 -36.40000343322754, 123.9234390258789 -36.40000343322754"></path></g><g style="" class="divider"><path style="" fill="none" stroke-width="1.3" stroke="#1a468b" d="M-123.9234390258789 -12.400003433227539 C-71.95479825721213 -12.400003433227539, -19.986157488545345 -12.400003433227539, 123.9234390258789 -12.400003433227539 M-123.9234390258789 -12.400003433227539 C-25.31117268715107 -12.400003433227539, 73.30109365157676 -12.400003433227539, 123.9234390258789 -12.400003433227539"></path></g></g><g transform="translate(947.1511840820312, 86.80000305175781)" id="classId-WeatherService-336" class="node default"><g class="basic label-container"><path style="" fill="#ffffff" stroke-width="0" stroke="none" d="M-133.134765625 -57.400001525878906 L133.134765625 -57.400001525878906 L133.134765625 57.400001525878906 L-133.134765625 57.400001525878906"></path><path style="" fill="none" stroke-width="1.3" stroke="#1a468b" d="M-133.134765625 -57.400001525878906 C-54.3567096037695 -57.400001525878906, 24.421346417460995 -57.400001525878906, 133.134765625 -57.400001525878906 M-133.134765625 -57.400001525878906 C-74.28767403759493 -57.400001525878906, -15.44058245018985 -57.400001525878906, 133.134765625 -57.400001525878906 M133.134765625 -57.400001525878906 C133.134765625 -16.1103116369315, 133.134765625 25.17937825201591, 133.134765625 57.400001525878906 M133.134765625 -57.400001525878906 C133.134765625 -27.903896250938175, 133.134765625 1.5922090240025568, 133.134765625 57.400001525878906 M133.134765625 57.400001525878906 C54.22596190913606 57.400001525878906, -24.68284180672788 57.400001525878906, -133.134765625 57.400001525878906 M133.134765625 57.400001525878906 C70.71425464836932 57.400001525878906, 8.293743671738653 57.400001525878906, -133.134765625 57.400001525878906 M-133.134765625 57.400001525878906 C-133.134765625 30.414587898553485, -133.134765625 3.4291742712280637, -133.134765625 -57.400001525878906 M-133.134765625 57.400001525878906 C-133.134765625 33.82909601356431, -133.134765625 10.258190501249707, -133.134765625 -57.400001525878906"></path></g><g transform="translate(0, -37.400001525878906)" class="annotation-group text"></g><g transform="translate(-59.96953201293945, -37.400001525878906)" class="label-group text"><g transform="translate(0,-9.199999809265137)" style="font-weight: bolder" class="label"><g><rect style="stroke: none" class="background"></rect><text style="" y="-10.1"><tspan font-weight="" dy="1.1em" y="-0.1em" x="0" class="text-outer-tspan"><tspan font-weight="" class="text-inner-tspan" font-style="normal">WeatherService</tspan></tspan></text></g></g></g><g transform="translate(-121.134765625, 4.999998092651367)" class="members-group text"></g><g transform="translate(-121.134765625, 34.99999809265137)" class="methods-group text"><g transform="translate(0,-9.199999809265137)" style="" class="label"><g><rect style="stroke: none" class="background"></rect><text style="" y="-10.1"><tspan dy="1.1em" y="-0.1em" x="0" class="text-outer-tspan"><tspan font-weight="normal" class="text-inner-tspan" font-style="normal">+getWeatherByLocation()</tspan></tspan></text></g></g></g><g style="" class="divider"><path style="" fill="none" stroke-width="1.3" stroke="#1a468b" d="M-133.134765625 -15.000001907348633 C-51.24691488666646 -15.000001907348633, 30.64093585166708 -15.000001907348633, 133.134765625 -15.000001907348633 M-133.134765625 -15.000001907348633 C-47.53877864493002 -15.000001907348633, 38.05720833513996 -15.000001907348633, 133.134765625 -15.000001907348633"></path></g><g style="" class="divider"><path style="" fill="none" stroke-width="1.3" stroke="#1a468b" d="M-133.134765625 8.999998092651367 C-77.60673345574186 8.999998092651367, -22.07870128648372 8.999998092651367, 133.134765625 8.999998092651367 M-133.134765625 8.999998092651367 C-52.17588570371858 8.999998092651367, 28.782994217562845 8.999998092651367, 133.134765625 8.999998092651367"></path></g></g><g transform="translate(663.8785247802734, 86.80000305175781)" id="classId-EmailService-337" class="node default"><g class="basic label-container"><path style="" fill="#ffffff" stroke-width="0" stroke="none" d="M-100.13789367675781 -57.400001525878906 L100.13789367675781 -57.400001525878906 L100.13789367675781 57.400001525878906 L-100.13789367675781 57.400001525878906"></path><path style="" fill="none" stroke-width="1.3" stroke="#1a468b" d="M-100.13789367675781 -57.400001525878906 C-54.837516118291724 -57.400001525878906, -9.537138559825635 -57.400001525878906, 100.13789367675781 -57.400001525878906 M-100.13789367675781 -57.400001525878906 C-37.92994990445283 -57.400001525878906, 24.277993867852146 -57.400001525878906, 100.13789367675781 -57.400001525878906 M100.13789367675781 -57.400001525878906 C100.13789367675781 -32.16392476548644, 100.13789367675781 -6.927848005093985, 100.13789367675781 57.400001525878906 M100.13789367675781 -57.400001525878906 C100.13789367675781 -27.989934504417217, 100.13789367675781 1.4201325170444719, 100.13789367675781 57.400001525878906 M100.13789367675781 57.400001525878906 C30.07628335832635 57.400001525878906, -39.98532696010511 57.400001525878906, -100.13789367675781 57.400001525878906 M100.13789367675781 57.400001525878906 C55.296626089054946 57.400001525878906, 10.45535850135208 57.400001525878906, -100.13789367675781 57.400001525878906 M-100.13789367675781 57.400001525878906 C-100.13789367675781 23.21687806123431, -100.13789367675781 -10.966245403410284, -100.13789367675781 -57.400001525878906 M-100.13789367675781 57.400001525878906 C-100.13789367675781 27.87314870482012, -100.13789367675781 -1.6537041162386643, -100.13789367675781 -57.400001525878906"></path></g><g transform="translate(0, -37.400001525878906)" class="annotation-group text"></g><g transform="translate(-48.28828048706055, -37.400001525878906)" class="label-group text"><g transform="translate(0,-9.199999809265137)" style="font-weight: bolder" class="label"><g><rect style="stroke: none" class="background"></rect><text style="" y="-10.1"><tspan font-weight="" dy="1.1em" y="-0.1em" x="0" class="text-outer-tspan"><tspan font-weight="" class="text-inner-tspan" font-style="normal">EmailService</tspan></tspan></text></g></g></g><g transform="translate(-88.13789367675781, 4.999998092651367)" class="members-group text"></g><g transform="translate(-88.13789367675781, 34.99999809265137)" class="methods-group text"><g transform="translate(0,-9.199999809265137)" style="" class="label"><g><rect style="stroke: none" class="background"></rect><text style="" y="-10.1"><tspan dy="1.1em" y="-0.1em" x="0" class="text-outer-tspan"><tspan font-weight="normal" class="text-inner-tspan" font-style="normal">+sendAlertEmail()</tspan></tspan></text></g></g></g><g style="" class="divider"><path style="" fill="none" stroke-width="1.3" stroke="#1a468b" d="M-100.13789367675781 -15.000001907348633 C-32.817125223745435 -15.000001907348633, 34.50364322926694 -15.000001907348633, 100.13789367675781 -15.000001907348633 M-100.13789367675781 -15.000001907348633 C-53.33284753524525 -15.000001907348633, -6.5278013937326875 -15.000001907348633, 100.13789367675781 -15.000001907348633"></path></g><g style="" class="divider"><path style="" fill="none" stroke-width="1.3" stroke="#1a468b" d="M-100.13789367675781 8.999998092651367 C-21.156849844644412 8.999998092651367, 57.82419398746899 8.999998092651367, 100.13789367675781 8.999998092651367 M-100.13789367675781 8.999998092651367 C-29.357064896038835 8.999998092651367, 41.42376388468014 8.999998092651367, 100.13789367675781 8.999998092651367"></path></g></g></g></g></g></svg>