<svg aria-roledescription="class" role="graphics-document document" viewBox="0 0 1394.9140625 315.4000244140625" style="max-width: 1394.9140625px;" class="classDiagram" xmlns="http://www.w3.org/2000/svg" width="100%" id="mermaidSvgId"><style>#mermaidSvgId{font-family:"trebuchet ms",verdana,arial,sans-serif;font-size:16px;fill:#0a0f14;}@keyframes edge-animation-frame{from{stroke-dashoffset:0;}}@keyframes dash{to{stroke-dashoffset:0;}}#mermaidSvgId .edge-animation-slow{stroke-dasharray:9,5!important;stroke-dashoffset:900;animation:dash 50s linear infinite;stroke-linecap:round;}#mermaidSvgId .edge-animation-fast{stroke-dasharray:9,5!important;stroke-dashoffset:900;animation:dash 20s linear infinite;stroke-linecap:round;}#mermaidSvgId .error-icon{fill:#ffebee;}#mermaidSvgId .error-text{fill:#c62828;stroke:#c62828;}#mermaidSvgId .edge-thickness-normal{stroke-width:1px;}#mermaidSvgId .edge-thickness-thick{stroke-width:3.5px;}#mermaidSvgId .edge-pattern-solid{stroke-dasharray:0;}#mermaidSvgId .edge-thickness-invisible{stroke-width:0;fill:none;}#mermaidSvgId .edge-pattern-dashed{stroke-dasharray:3;}#mermaidSvgId .edge-pattern-dotted{stroke-dasharray:2;}#mermaidSvgId .marker{fill:#0a0f14;stroke:#0a0f14;}#mermaidSvgId .marker.cross{stroke:#0a0f14;}#mermaidSvgId svg{font-family:"trebuchet ms",verdana,arial,sans-serif;font-size:16px;}#mermaidSvgId p{margin:0;}#mermaidSvgId g.classGroup text{fill:#1a468b;stroke:none;font-family:"trebuchet ms",verdana,arial,sans-serif;font-size:10px;}#mermaidSvgId g.classGroup text .title{font-weight:bolder;}#mermaidSvgId .nodeLabel,#mermaidSvgId .edgeLabel{color:#0a0f14;}#mermaidSvgId .edgeLabel .label rect{fill:#ffffff;}#mermaidSvgId .label text{fill:#0a0f14;}#mermaidSvgId .labelBkg{background:#ffffff;}#mermaidSvgId .edgeLabel .label span{background:#ffffff;}#mermaidSvgId .classTitle{font-weight:bolder;}#mermaidSvgId .node rect,#mermaidSvgId .node circle,#mermaidSvgId .node ellipse,#mermaidSvgId .node polygon,#mermaidSvgId .node path{fill:#ffffff;stroke:#1a468b;stroke-width:1px;}#mermaidSvgId .divider{stroke:#1a468b;stroke-width:1;}#mermaidSvgId g.clickable{cursor:pointer;}#mermaidSvgId g.classGroup rect{fill:#ffffff;stroke:#1a468b;}#mermaidSvgId g.classGroup line{stroke:#1a468b;stroke-width:1;}#mermaidSvgId .classLabel .box{stroke:none;stroke-width:0;fill:#ffffff;opacity:0.5;}#mermaidSvgId .classLabel .label{fill:#1a468b;font-size:10px;}#mermaidSvgId .relation{stroke:#0a0f14;stroke-width:1;fill:none;}#mermaidSvgId .dashed-line{stroke-dasharray:3;}#mermaidSvgId .dotted-line{stroke-dasharray:1 2;}#mermaidSvgId #compositionStart,#mermaidSvgId .composition{fill:#0a0f14!important;stroke:#0a0f14!important;stroke-width:1;}#mermaidSvgId #compositionEnd,#mermaidSvgId .composition{fill:#0a0f14!important;stroke:#0a0f14!important;stroke-width:1;}#mermaidSvgId #dependencyStart,#mermaidSvgId .dependency{fill:#0a0f14!important;stroke:#0a0f14!important;stroke-width:1;}#mermaidSvgId #dependencyStart,#mermaidSvgId .dependency{fill:#0a0f14!important;stroke:#0a0f14!important;stroke-width:1;}#mermaidSvgId #extensionStart,#mermaidSvgId .extension{fill:transparent!important;stroke:#0a0f14!important;stroke-width:1;}#mermaidSvgId #extensionEnd,#mermaidSvgId .extension{fill:transparent!important;stroke:#0a0f14!important;stroke-width:1;}#mermaidSvgId #aggregationStart,#mermaidSvgId .aggregation{fill:transparent!important;stroke:#0a0f14!important;stroke-width:1;}#mermaidSvgId #aggregationEnd,#mermaidSvgId .aggregation{fill:transparent!important;stroke:#0a0f14!important;stroke-width:1;}#mermaidSvgId #lollipopStart,#mermaidSvgId .lollipop{fill:#ffffff!important;stroke:#0a0f14!important;stroke-width:1;}#mermaidSvgId #lollipopEnd,#mermaidSvgId .lollipop{fill:#ffffff!important;stroke:#0a0f14!important;stroke-width:1;}#mermaidSvgId .edgeTerminals{font-size:11px;line-height:initial;}#mermaidSvgId .classTitleText{text-anchor:middle;font-size:18px;fill:#0a0f14;}#mermaidSvgId :root{--mermaid-font-family:"trebuchet ms",verdana,arial,sans-serif;}</style><g><defs><marker orient="auto" markerHeight="240" markerWidth="190" refY="7" refX="18" class="marker aggregation class" id="mermaidSvgId_class-aggregationStart"><path d="M 18,7 L9,13 L1,7 L9,1 Z"></path></marker></defs><defs><marker orient="auto" markerHeight="28" markerWidth="20" refY="7" refX="1" class="marker aggregation class" id="mermaidSvgId_class-aggregationEnd"><path d="M 18,7 L9,13 L1,7 L9,1 Z"></path></marker></defs><defs><marker orient="auto" markerHeight="240" markerWidth="190" refY="7" refX="18" class="marker extension class" id="mermaidSvgId_class-extensionStart"><path d="M 1,7 L18,13 V 1 Z"></path></marker></defs><defs><marker orient="auto" markerHeight="28" markerWidth="20" refY="7" refX="1" class="marker extension class" id="mermaidSvgId_class-extensionEnd"><path d="M 1,1 V 13 L18,7 Z"></path></marker></defs><defs><marker orient="auto" markerHeight="240" markerWidth="190" refY="7" refX="18" class="marker composition class" id="mermaidSvgId_class-compositionStart"><path d="M 18,7 L9,13 L1,7 L9,1 Z"></path></marker></defs><defs><marker orient="auto" markerHeight="28" markerWidth="20" refY="7" refX="1" class="marker composition class" id="mermaidSvgId_class-compositionEnd"><path d="M 18,7 L9,13 L1,7 L9,1 Z"></path></marker></defs><defs><marker orient="auto" markerHeight="240" markerWidth="190" refY="7" refX="6" class="marker dependency class" id="mermaidSvgId_class-dependencyStart"><path d="M 5,7 L9,13 L1,7 L9,1 Z"></path></marker></defs><defs><marker orient="auto" markerHeight="28" markerWidth="20" refY="7" refX="13" class="marker dependency class" id="mermaidSvgId_class-dependencyEnd"><path d="M 18,7 L9,13 L14,7 L9,1 Z"></path></marker></defs><defs><marker orient="auto" markerHeight="240" markerWidth="190" refY="7" refX="13" class="marker lollipop class" id="mermaidSvgId_class-lollipopStart"><circle r="6" cy="7" cx="7" fill="transparent" stroke="black"></circle></marker></defs><defs><marker orient="auto" markerHeight="240" markerWidth="190" refY="7" refX="1" class="marker lollipop class" id="mermaidSvgId_class-lollipopEnd"><circle r="6" cy="7" cx="7" fill="transparent" stroke="black"></circle></marker></defs><g class="root"><g class="clusters"></g><g class="edgePaths"><path marker-end="url(#mermaidSvgId_class-dependencyEnd)" style=";" class="edge-thickness-normal edge-pattern-solid relation" id="id_DisasterAlertProfile_DisasterDataFetcher_1" d="M621.357,71.673L556.581,83.228C491.806,94.782,362.256,117.891,297.481,134.479C232.706,151.067,232.706,161.133,232.706,166.167L232.706,171.2"></path><path marker-end="url(#mermaidSvgId_class-dependencyEnd)" style=";" class="edge-thickness-normal edge-pattern-solid relation" id="id_DisasterAlertProfile_AlertDispatcher_2" d="M706.981,104.8L706.981,110.833C706.981,116.867,706.981,128.933,706.981,140C706.981,151.067,706.981,161.133,706.981,166.167L706.981,171.2"></path><path marker-end="url(#mermaidSvgId_class-dependencyEnd)" style=";" class="edge-thickness-normal edge-pattern-solid relation" id="id_DisasterAlertProfile_DashboardUpdater_3" d="M792.605,71.986L855.793,83.489C918.981,94.991,1045.356,117.995,1108.544,134.531C1171.732,151.067,1171.732,161.133,1171.732,166.167L1171.732,171.2"></path></g><g class="edgeLabels"><g transform="translate(232.7058563232422, 141.00000286102295)" class="edgeLabel"><g transform="translate(-28.03125, -11.199999809265137)" class="label"><g><rect height="22.399999618530273" width="56.0625" y="-1.199999988079071" x="-2" style=";display: inline-block" class="background"></rect><text style=";display: inline-block" y="-10.1"><tspan dy="1.1em" y="-0.1em" x="0" class="text-outer-tspan"><tspan font-weight="normal" class="text-inner-tspan" font-style="normal">defines</tspan></tspan></text></g></g></g><g transform="translate(706.9808502197266, 141.00000286102295)" class="edgeLabel"><g transform="translate(-28.03125, -11.199999809265137)" class="label"><g><rect height="22.399999618530273" width="56.0625" y="-1.199999988079071" x="-2" style=";display: inline-block" class="background"></rect><text style=";display: inline-block" y="-10.1"><tspan dy="1.1em" y="-0.1em" x="0" class="text-outer-tspan"><tspan font-weight="normal" class="text-inner-tspan" font-style="normal">defines</tspan></tspan></text></g></g></g><g transform="translate(1171.7320251464844, 141.00000286102295)" class="edgeLabel"><g transform="translate(-28.03125, -11.199999809265137)" class="label"><g><rect height="22.399999618530273" width="56.0625" y="-1.199999988079071" x="-2" style=";display: inline-block" class="background"></rect><text style=";display: inline-block" y="-10.1"><tspan dy="1.1em" y="-0.1em" x="0" class="text-outer-tspan"><tspan font-weight="normal" class="text-inner-tspan" font-style="normal">defines</tspan></tspan></text></g></g></g></g><g class="nodes"><g transform="translate(706.9808502197266, 56.400001525878906)" id="classId-DisasterAlertProfile-354" class="node default"><g class="basic label-container"><path style="" fill="#ffffff" stroke-width="0" stroke="none" d="M-85.62422180175781 -48.39999961853027 L85.62422180175781 -48.39999961853027 L85.62422180175781 48.39999961853027 L-85.62422180175781 48.39999961853027"></path><path style="" fill="none" stroke-width="1.3" stroke="#1a468b" d="M-85.62422180175781 -48.39999961853027 C-36.29962491408518 -48.39999961853027, 13.024971973587455 -48.39999961853027, 85.62422180175781 -48.39999961853027 M-85.62422180175781 -48.39999961853027 C-47.71278088467144 -48.39999961853027, -9.801339967585065 -48.39999961853027, 85.62422180175781 -48.39999961853027 M85.62422180175781 -48.39999961853027 C85.62422180175781 -15.690493463174995, 85.62422180175781 17.019012692180283, 85.62422180175781 48.39999961853027 M85.62422180175781 -48.39999961853027 C85.62422180175781 -15.743713011781054, 85.62422180175781 16.912573594968165, 85.62422180175781 48.39999961853027 M85.62422180175781 48.39999961853027 C34.55080560215717 48.39999961853027, -16.522610597443474 48.39999961853027, -85.62422180175781 48.39999961853027 M85.62422180175781 48.39999961853027 C39.8250701287721 48.39999961853027, -5.974081544213618 48.39999961853027, -85.62422180175781 48.39999961853027 M-85.62422180175781 48.39999961853027 C-85.62422180175781 16.83578340295036, -85.62422180175781 -14.728432812629556, -85.62422180175781 -48.39999961853027 M-85.62422180175781 48.39999961853027 C-85.62422180175781 20.443290992708977, -85.62422180175781 -7.513417633112319, -85.62422180175781 -48.39999961853027"></path></g><g transform="translate(-31.84375, -28.399999618530273)" class="annotation-group text"><g transform="translate(0,-9.199999809265137)" style="" class="label"><g><rect style="stroke: none" class="background"></rect><text style="" y="-10.1"><tspan dy="1.1em" y="-0.1em" x="0" class="text-outer-tspan"><tspan font-weight="normal" class="text-inner-tspan" font-style="normal">«Profile»</tspan></tspan></text></g></g></g><g transform="translate(-73.62422180175781, -10)" class="label-group text"><g transform="translate(0,-9.199999809265137)" style="font-weight: bolder" class="label"><g><rect style="stroke: none" class="background"></rect><text style="" y="-10.1"><tspan font-weight="" dy="1.1em" y="-0.1em" x="0" class="text-outer-tspan"><tspan font-weight="" class="text-inner-tspan" font-style="normal">DisasterAlertProfile</tspan></tspan></text></g></g></g><g transform="translate(-73.62422180175781, 32.39999961853027)" class="members-group text"></g><g transform="translate(-73.62422180175781, 62.39999961853027)" class="methods-group text"></g><g style="" class="divider"><path style="" fill="none" stroke-width="1.3" stroke="#1a468b" d="M-85.62422180175781 12.399999618530273 C-42.73294779338377 12.399999618530273, 0.158326214990268 12.399999618530273, 85.62422180175781 12.399999618530273 M-85.62422180175781 12.399999618530273 C-31.74662932123347 12.399999618530273, 22.13096315929087 12.399999618530273, 85.62422180175781 12.399999618530273"></path></g><g style="" class="divider"><path style="" fill="none" stroke-width="1.3" stroke="#1a468b" d="M-85.62422180175781 30.399999618530273 C-31.163429625379784 30.399999618530273, 23.297362550998244 30.399999618530273, 85.62422180175781 30.399999618530273 M-85.62422180175781 30.399999618530273 C-47.78496466799496 30.399999618530273, -9.945707534232113 30.399999618530273, 85.62422180175781 30.399999618530273"></path></g></g><g transform="translate(232.7058563232422, 242.3000087738037)" id="classId-DisasterDataFetcher-355" class="node default"><g class="basic label-container"><path style="" fill="#ffffff" stroke-width="0" stroke="none" d="M-224.7058563232422 -65.10000228881836 L224.7058563232422 -65.10000228881836 L224.7058563232422 65.10000228881836 L-224.7058563232422 65.10000228881836"></path><path style="" fill="none" stroke-width="1.3" stroke="#1a468b" d="M-224.7058563232422 -65.10000228881836 C-100.65538625086035 -65.10000228881836, 23.395083821521496 -65.10000228881836, 224.7058563232422 -65.10000228881836 M-224.7058563232422 -65.10000228881836 C-111.38025019964593 -65.10000228881836, 1.9453559239503306 -65.10000228881836, 224.7058563232422 -65.10000228881836 M224.7058563232422 -65.10000228881836 C224.7058563232422 -25.35381200160098, 224.7058563232422 14.392378285616402, 224.7058563232422 65.10000228881836 M224.7058563232422 -65.10000228881836 C224.7058563232422 -20.382561656097558, 224.7058563232422 24.334878976623244, 224.7058563232422 65.10000228881836 M224.7058563232422 65.10000228881836 C75.07072147060862 65.10000228881836, -74.56441338202495 65.10000228881836, -224.7058563232422 65.10000228881836 M224.7058563232422 65.10000228881836 C62.21686605151655 65.10000228881836, -100.2721242202091 65.10000228881836, -224.7058563232422 65.10000228881836 M-224.7058563232422 65.10000228881836 C-224.7058563232422 16.734155452062197, -224.7058563232422 -31.631691384693966, -224.7058563232422 -65.10000228881836 M-224.7058563232422 65.10000228881836 C-224.7058563232422 36.02259076024229, -224.7058563232422 6.945179231666216, -224.7058563232422 -65.10000228881836"></path></g><g transform="translate(0, -45.10000228881836)" class="annotation-group text"></g><g transform="translate(-75.7992172241211, -45.10000228881836)" class="label-group text"><g transform="translate(0,-9.199999809265137)" style="font-weight: bolder" class="label"><g><rect style="stroke: none" class="background"></rect><text style="" y="-10.1"><tspan font-weight="" dy="1.1em" y="-0.1em" x="0" class="text-outer-tspan"><tspan font-weight="" class="text-inner-tspan" font-style="normal">DisasterDataFetcher</tspan></tspan></text></g></g></g><g transform="translate(-212.7058563232422, -2.700002670288086)" class="members-group text"><g transform="translate(0,-9.199999809265137)" style="" class="label"><g><rect style="stroke: none" class="background"></rect><text style="" y="-10.1"><tspan dy="1.1em" y="-0.1em" x="0" class="text-outer-tspan"><tspan font-weight="normal" class="text-inner-tspan" font-style="normal">+APIName:</tspan><tspan font-weight="normal" class="text-inner-tspan" font-style="normal"> String</tspan></tspan></text></g></g><g transform="translate(0,12.199999809265137)" style="" class="label"><g><rect style="stroke: none" class="background"></rect><text style="" y="-10.1"><tspan dy="1.1em" y="-0.1em" x="0" class="text-outer-tspan"><tspan font-weight="normal" class="text-inner-tspan" font-style="normal">note</tspan><tspan font-weight="normal" class="text-inner-tspan" font-style="normal"> right</tspan><tspan font-weight="normal" class="text-inner-tspan" font-style="normal"> of</tspan><tspan font-weight="normal" class="text-inner-tspan" font-style="normal"> DisasterDataFetcher</tspan><tspan font-weight="normal" class="text-inner-tspan" font-style="normal"> :</tspan><tspan font-weight="normal" class="text-inner-tspan" font-style="normal"> «stereotype»</tspan></tspan></text></g></g></g><g transform="translate(-212.7058563232422, 61.09999656677246)" class="methods-group text"></g><g style="" class="divider"><path style="" fill="none" stroke-width="1.3" stroke="#1a468b" d="M-224.7058563232422 -22.700002670288086 C-114.43345331233179 -22.700002670288086, -4.1610503014213975 -22.700002670288086, 224.7058563232422 -22.700002670288086 M-224.7058563232422 -22.700002670288086 C-63.53474456832842 -22.700002670288086, 97.63636718658535 -22.700002670288086, 224.7058563232422 -22.700002670288086"></path></g><g style="" class="divider"><path style="" fill="none" stroke-width="1.3" stroke="#1a468b" d="M-224.7058563232422 41.09999656677246 C-75.06693034604521 41.09999656677246, 74.57199563115176 41.09999656677246, 224.7058563232422 41.09999656677246 M-224.7058563232422 41.09999656677246 C-98.65395042769498 41.09999656677246, 27.397955467852228 41.09999656677246, 224.7058563232422 41.09999656677246"></path></g></g><g transform="translate(706.9808502197266, 242.3000087738037)" id="classId-AlertDispatcher-356" class="node default"><g class="basic label-container"><path style="" fill="#ffffff" stroke-width="0" stroke="none" d="M-199.5691375732422 -65.10000228881836 L199.5691375732422 -65.10000228881836 L199.5691375732422 65.10000228881836 L-199.5691375732422 65.10000228881836"></path><path style="" fill="none" stroke-width="1.3" stroke="#1a468b" d="M-199.5691375732422 -65.10000228881836 C-55.33012846069826 -65.10000228881836, 88.90888065184566 -65.10000228881836, 199.5691375732422 -65.10000228881836 M-199.5691375732422 -65.10000228881836 C-88.37300791418018 -65.10000228881836, 22.82312174488183 -65.10000228881836, 199.5691375732422 -65.10000228881836 M199.5691375732422 -65.10000228881836 C199.5691375732422 -37.63292988384381, 199.5691375732422 -10.165857478869256, 199.5691375732422 65.10000228881836 M199.5691375732422 -65.10000228881836 C199.5691375732422 -34.98174080872212, 199.5691375732422 -4.863479328625878, 199.5691375732422 65.10000228881836 M199.5691375732422 65.10000228881836 C48.249395850473945 65.10000228881836, -103.0703458722943 65.10000228881836, -199.5691375732422 65.10000228881836 M199.5691375732422 65.10000228881836 C68.58817516992815 65.10000228881836, -62.39278723338589 65.10000228881836, -199.5691375732422 65.10000228881836 M-199.5691375732422 65.10000228881836 C-199.5691375732422 28.691416047302035, -199.5691375732422 -7.71717019421429, -199.5691375732422 -65.10000228881836 M-199.5691375732422 65.10000228881836 C-199.5691375732422 21.328409135796967, -199.5691375732422 -22.443184017224425, -199.5691375732422 -65.10000228881836"></path></g><g transform="translate(0, -45.10000228881836)" class="annotation-group text"></g><g transform="translate(-59.11328125, -45.10000228881836)" class="label-group text"><g transform="translate(0,-9.199999809265137)" style="font-weight: bolder" class="label"><g><rect style="stroke: none" class="background"></rect><text style="" y="-10.1"><tspan font-weight="" dy="1.1em" y="-0.1em" x="0" class="text-outer-tspan"><tspan font-weight="" class="text-inner-tspan" font-style="normal">AlertDispatcher</tspan></tspan></text></g></g></g><g transform="translate(-187.5691375732422, -2.700002670288086)" class="members-group text"><g transform="translate(0,-9.199999809265137)" style="" class="label"><g><rect style="stroke: none" class="background"></rect><text style="" y="-10.1"><tspan dy="1.1em" y="-0.1em" x="0" class="text-outer-tspan"><tspan font-weight="normal" class="text-inner-tspan" font-style="normal">+AlertType:</tspan><tspan font-weight="normal" class="text-inner-tspan" font-style="normal"> String</tspan></tspan></text></g></g><g transform="translate(0,12.199999809265137)" style="" class="label"><g><rect style="stroke: none" class="background"></rect><text style="" y="-10.1"><tspan dy="1.1em" y="-0.1em" x="0" class="text-outer-tspan"><tspan font-weight="normal" class="text-inner-tspan" font-style="normal">note</tspan><tspan font-weight="normal" class="text-inner-tspan" font-style="normal"> right</tspan><tspan font-weight="normal" class="text-inner-tspan" font-style="normal"> of</tspan><tspan font-weight="normal" class="text-inner-tspan" font-style="normal"> AlertDispatcher</tspan><tspan font-weight="normal" class="text-inner-tspan" font-style="normal"> :</tspan><tspan font-weight="normal" class="text-inner-tspan" font-style="normal"> «stereotype»</tspan></tspan></text></g></g></g><g transform="translate(-187.5691375732422, 61.09999656677246)" class="methods-group text"></g><g style="" class="divider"><path style="" fill="none" stroke-width="1.3" stroke="#1a468b" d="M-199.5691375732422 -22.700002670288086 C-45.01938143254779 -22.700002670288086, 109.53037470814661 -22.700002670288086, 199.5691375732422 -22.700002670288086 M-199.5691375732422 -22.700002670288086 C-48.102252434583306 -22.700002670288086, 103.36463270407558 -22.700002670288086, 199.5691375732422 -22.700002670288086"></path></g><g style="" class="divider"><path style="" fill="none" stroke-width="1.3" stroke="#1a468b" d="M-199.5691375732422 41.09999656677246 C-70.73783246120186 41.09999656677246, 58.093472650838464 41.09999656677246, 199.5691375732422 41.09999656677246 M-199.5691375732422 41.09999656677246 C-112.58024119257512 41.09999656677246, -25.591344811908044 41.09999656677246, 199.5691375732422 41.09999656677246"></path></g></g><g transform="translate(1171.7320251464844, 242.3000087738037)" id="classId-DashboardUpdater-357" class="node default"><g class="basic label-container"><path style="" fill="#ffffff" stroke-width="0" stroke="none" d="M-215.18203735351562 -65.10000228881836 L215.18203735351562 -65.10000228881836 L215.18203735351562 65.10000228881836 L-215.18203735351562 65.10000228881836"></path><path style="" fill="none" stroke-width="1.3" stroke="#1a468b" d="M-215.18203735351562 -65.10000228881836 C-125.6431822235346 -65.10000228881836, -36.104327093553565 -65.10000228881836, 215.18203735351562 -65.10000228881836 M-215.18203735351562 -65.10000228881836 C-61.27636159039619 -65.10000228881836, 92.62931417272324 -65.10000228881836, 215.18203735351562 -65.10000228881836 M215.18203735351562 -65.10000228881836 C215.18203735351562 -33.78976845254637, 215.18203735351562 -2.4795346162743783, 215.18203735351562 65.10000228881836 M215.18203735351562 -65.10000228881836 C215.18203735351562 -27.601495911935174, 215.18203735351562 9.89701046494801, 215.18203735351562 65.10000228881836 M215.18203735351562 65.10000228881836 C96.23311080795725 65.10000228881836, -22.715815737601133 65.10000228881836, -215.18203735351562 65.10000228881836 M215.18203735351562 65.10000228881836 C66.76332468957631 65.10000228881836, -81.65538797436301 65.10000228881836, -215.18203735351562 65.10000228881836 M-215.18203735351562 65.10000228881836 C-215.18203735351562 31.91226644389389, -215.18203735351562 -1.275469401030577, -215.18203735351562 -65.10000228881836 M-215.18203735351562 65.10000228881836 C-215.18203735351562 33.21387695761601, -215.18203735351562 1.327751626413665, -215.18203735351562 -65.10000228881836"></path></g><g transform="translate(0, -45.10000228881836)" class="annotation-group text"></g><g transform="translate(-69.4515609741211, -45.10000228881836)" class="label-group text"><g transform="translate(0,-9.199999809265137)" style="font-weight: bolder" class="label"><g><rect style="stroke: none" class="background"></rect><text style="" y="-10.1"><tspan font-weight="" dy="1.1em" y="-0.1em" x="0" class="text-outer-tspan"><tspan font-weight="" class="text-inner-tspan" font-style="normal">DashboardUpdater</tspan></tspan></text></g></g></g><g transform="translate(-203.18203735351562, -2.700002670288086)" class="members-group text"><g transform="translate(0,-9.199999809265137)" style="" class="label"><g><rect style="stroke: none" class="background"></rect><text style="" y="-10.1"><tspan dy="1.1em" y="-0.1em" x="0" class="text-outer-tspan"><tspan font-weight="normal" class="text-inner-tspan" font-style="normal">+UpdateInterval:</tspan><tspan font-weight="normal" class="text-inner-tspan" font-style="normal"> Integer</tspan></tspan></text></g></g><g transform="translate(0,12.199999809265137)" style="" class="label"><g><rect style="stroke: none" class="background"></rect><text style="" y="-10.1"><tspan dy="1.1em" y="-0.1em" x="0" class="text-outer-tspan"><tspan font-weight="normal" class="text-inner-tspan" font-style="normal">note</tspan><tspan font-weight="normal" class="text-inner-tspan" font-style="normal"> right</tspan><tspan font-weight="normal" class="text-inner-tspan" font-style="normal"> of</tspan><tspan font-weight="normal" class="text-inner-tspan" font-style="normal"> DashboardUpdater</tspan><tspan font-weight="normal" class="text-inner-tspan" font-style="normal"> :</tspan><tspan font-weight="normal" class="text-inner-tspan" font-style="normal"> «stereotype»</tspan></tspan></text></g></g></g><g transform="translate(-203.18203735351562, 61.09999656677246)" class="methods-group text"></g><g style="" class="divider"><path style="" fill="none" stroke-width="1.3" stroke="#1a468b" d="M-215.18203735351562 -22.700002670288086 C-87.29629930353033 -22.700002670288086, 40.58943874645496 -22.700002670288086, 215.18203735351562 -22.700002670288086 M-215.18203735351562 -22.700002670288086 C-74.5856636912882 -22.700002670288086, 66.01070997093922 -22.700002670288086, 215.18203735351562 -22.700002670288086"></path></g><g style="" class="divider"><path style="" fill="none" stroke-width="1.3" stroke="#1a468b" d="M-215.18203735351562 41.09999656677246 C-100.35942396521145 41.09999656677246, 14.463189423092729 41.09999656677246, 215.18203735351562 41.09999656677246 M-215.18203735351562 41.09999656677246 C-58.74042735772656 41.09999656677246, 97.7011826380625 41.09999656677246, 215.18203735351562 41.09999656677246"></path></g></g></g></g></g></svg>