<svg aria-roledescription="stateDiagram" role="graphics-document document" viewBox="-2.8000030517578125 0 488.995361328125 961.2000122070312" style="max-width: 488.995361328125px;" class="statediagram" xmlns="http://www.w3.org/2000/svg" width="100%" id="mermaidSvgId"><style>#mermaidSvgId{font-family:"trebuchet ms",verdana,arial,sans-serif;font-size:16px;fill:#0a0f14;}@keyframes edge-animation-frame{from{stroke-dashoffset:0;}}@keyframes dash{to{stroke-dashoffset:0;}}#mermaidSvgId .edge-animation-slow{stroke-dasharray:9,5!important;stroke-dashoffset:900;animation:dash 50s linear infinite;stroke-linecap:round;}#mermaidSvgId .edge-animation-fast{stroke-dasharray:9,5!important;stroke-dashoffset:900;animation:dash 20s linear infinite;stroke-linecap:round;}#mermaidSvgId .error-icon{fill:#ffebee;}#mermaidSvgId .error-text{fill:#c62828;stroke:#c62828;}#mermaidSvgId .edge-thickness-normal{stroke-width:1px;}#mermaidSvgId .edge-thickness-thick{stroke-width:3.5px;}#mermaidSvgId .edge-pattern-solid{stroke-dasharray:0;}#mermaidSvgId .edge-thickness-invisible{stroke-width:0;fill:none;}#mermaidSvgId .edge-pattern-dashed{stroke-dasharray:3;}#mermaidSvgId .edge-pattern-dotted{stroke-dasharray:2;}#mermaidSvgId .marker{fill:#0a0f14;stroke:#0a0f14;}#mermaidSvgId .marker.cross{stroke:#0a0f14;}#mermaidSvgId svg{font-family:"trebuchet ms",verdana,arial,sans-serif;font-size:16px;}#mermaidSvgId p{margin:0;}#mermaidSvgId defs #statediagram-barbEnd{fill:#0a0f14;stroke:#0a0f14;}#mermaidSvgId g.stateGroup text{fill:#1a468b;stroke:none;font-size:10px;}#mermaidSvgId g.stateGroup text{fill:#0a0f14;stroke:none;font-size:10px;}#mermaidSvgId g.stateGroup .state-title{font-weight:bolder;fill:#0a0f14;}#mermaidSvgId g.stateGroup rect{fill:#ffffff;stroke:#1a468b;}#mermaidSvgId g.stateGroup line{stroke:#0a0f14;stroke-width:1;}#mermaidSvgId .transition{stroke:#0a0f14;stroke-width:1;fill:none;}#mermaidSvgId .stateGroup .composit{fill:#eef3f9;border-bottom:1px;}#mermaidSvgId .stateGroup .alt-composit{fill:#e0e0e0;border-bottom:1px;}#mermaidSvgId .state-note{stroke:#42a5f5;fill:#e3f2fd;}#mermaidSvgId .state-note text{fill:#1b1f27;stroke:none;font-size:10px;}#mermaidSvgId .stateLabel .box{stroke:none;stroke-width:0;fill:#ffffff;opacity:0.5;}#mermaidSvgId .edgeLabel .label rect{fill:#ffffff;opacity:0.5;}#mermaidSvgId .edgeLabel{background-color:#ffffff;text-align:center;}#mermaidSvgId .edgeLabel p{background-color:#ffffff;}#mermaidSvgId .edgeLabel rect{opacity:0.5;background-color:#ffffff;fill:#ffffff;}#mermaidSvgId .edgeLabel .label text{fill:#0a0f14;}#mermaidSvgId .label div .edgeLabel{color:#0a0f14;}#mermaidSvgId .stateLabel text{fill:#0a0f14;font-size:10px;font-weight:bold;}#mermaidSvgId .node circle.state-start{fill:#0a0f14;stroke:#0a0f14;}#mermaidSvgId .node .fork-join{fill:#0a0f14;stroke:#0a0f14;}#mermaidSvgId .node circle.state-end{fill:#1a468b;stroke:#eef3f9;stroke-width:1.5;}#mermaidSvgId .end-state-inner{fill:#eef3f9;stroke-width:1.5;}#mermaidSvgId .node rect{fill:#ffffff;stroke:#1a468b;stroke-width:1px;}#mermaidSvgId .node polygon{fill:#ffffff;stroke:#1a468b;stroke-width:1px;}#mermaidSvgId #statediagram-barbEnd{fill:#0a0f14;}#mermaidSvgId .statediagram-cluster rect{fill:#ffffff;stroke:#1a468b;stroke-width:1px;}#mermaidSvgId .cluster-label,#mermaidSvgId .nodeLabel{color:#0a0f14;}#mermaidSvgId .statediagram-cluster rect.outer{rx:5px;ry:5px;}#mermaidSvgId .statediagram-state .divider{stroke:#1a468b;}#mermaidSvgId .statediagram-state .title-state{rx:5px;ry:5px;}#mermaidSvgId .statediagram-cluster.statediagram-cluster .inner{fill:#eef3f9;}#mermaidSvgId .statediagram-cluster.statediagram-cluster-alt .inner{fill:#bbd6f2;}#mermaidSvgId .statediagram-cluster .inner{rx:0;ry:0;}#mermaidSvgId .statediagram-state rect.basic{rx:5px;ry:5px;}#mermaidSvgId .statediagram-state rect.divider{stroke-dasharray:10,10;fill:#bbd6f2;}#mermaidSvgId .note-edge{stroke-dasharray:5;}#mermaidSvgId .statediagram-note rect{fill:#e3f2fd;stroke:#42a5f5;stroke-width:1px;rx:0;ry:0;}#mermaidSvgId .statediagram-note rect{fill:#e3f2fd;stroke:#42a5f5;stroke-width:1px;rx:0;ry:0;}#mermaidSvgId .statediagram-note text{fill:#1b1f27;}#mermaidSvgId .statediagram-note .nodeLabel{color:#1b1f27;}#mermaidSvgId .statediagram .edgeLabel{color:red;}#mermaidSvgId #dependencyStart,#mermaidSvgId #dependencyEnd{fill:#0a0f14;stroke:#0a0f14;stroke-width:1;}#mermaidSvgId .statediagramTitleText{text-anchor:middle;font-size:18px;fill:#0a0f14;}#mermaidSvgId :root{--mermaid-font-family:"trebuchet ms",verdana,arial,sans-serif;}</style><g><defs><marker orient="auto" markerUnits="userSpaceOnUse" markerHeight="14" markerWidth="20" refY="7" refX="19" id="mermaidSvgId_stateDiagram-barbEnd"><path d="M 19,7 L9,13 L14,7 L9,1 Z"></path></marker></defs><g class="root"><g class="clusters"></g><g class="edgePaths"><path marker-end="url(#mermaidSvgId_stateDiagram-barbEnd)" style="fill:none;" class="edge-thickness-normal edge-pattern-solid transition" id="edge0" d="M257.53,22L257.53,26.167C257.53,30.333,257.53,38.667,257.53,47C257.53,55.333,257.53,63.667,257.53,67.833L257.53,72"></path><path marker-end="url(#mermaidSvgId_stateDiagram-barbEnd)" style="fill:none;" class="edge-thickness-normal edge-pattern-solid transition" id="edge1" d="M257.53,106.4L257.53,112.433C257.53,118.467,257.53,130.533,257.53,142.6C257.53,154.667,257.53,166.733,257.53,172.767L257.53,178.8"></path><path marker-end="url(#mermaidSvgId_stateDiagram-barbEnd)" style="fill:none;" class="edge-thickness-normal edge-pattern-solid transition" id="edge2" d="M257.53,213.2L257.53,219.233C257.53,225.267,257.53,237.333,257.53,249.4C257.53,261.467,257.53,273.533,257.53,279.567L257.53,285.6"></path><path marker-end="url(#mermaidSvgId_stateDiagram-barbEnd)" style="fill:none;" class="edge-thickness-normal edge-pattern-solid transition" id="edge3" d="M238.746,320L232.157,326.033C225.567,332.067,212.389,344.133,205.8,356.2C199.211,368.267,199.211,380.333,199.211,386.367L199.211,392.4"></path><path marker-end="url(#mermaidSvgId_stateDiagram-barbEnd)" style="fill:none;" class="edge-thickness-normal edge-pattern-solid transition" id="edge4" d="M169.172,426.8L158.635,432.833C148.098,438.867,127.024,450.933,116.487,463C105.95,475.067,105.95,487.133,105.95,493.167L105.95,499.2"></path><path marker-end="url(#mermaidSvgId_stateDiagram-barbEnd)" style="fill:none;" class="edge-thickness-normal edge-pattern-solid transition" id="edge5" d="M229.25,426.8L239.787,432.833C250.324,438.867,271.398,450.933,281.935,465.867C292.472,480.8,292.472,498.6,292.472,517.867C292.472,537.133,292.472,557.867,292.472,575.733C292.472,593.6,292.472,608.6,292.472,616.1L292.472,623.6"></path><path marker-end="url(#mermaidSvgId_stateDiagram-barbEnd)" style="fill:none;" class="edge-thickness-normal edge-pattern-solid transition" id="edge6" d="M105.95,533.6L105.95,541.1C105.95,548.6,105.95,563.6,105.95,578.6C105.95,593.6,105.95,608.6,105.95,616.1L105.95,623.6"></path><path marker-end="url(#mermaidSvgId_stateDiagram-barbEnd)" style="fill:none;" class="edge-thickness-normal edge-pattern-solid transition" id="edge7" d="M105.95,658L105.95,665.5C105.95,673,105.95,688,105.95,703C105.95,718,105.95,733,105.95,740.5L105.95,748"></path><path marker-end="url(#mermaidSvgId_stateDiagram-barbEnd)" style="fill:none;" class="edge-thickness-normal edge-pattern-solid transition" id="edge8" d="M105.95,782.4L105.95,788.433C105.95,794.467,105.95,806.533,129.326,819.259C152.701,831.985,199.452,845.369,222.828,852.061L246.203,858.754"></path><path marker-end="url(#mermaidSvgId_stateDiagram-barbEnd)" style="fill:none;" class="edge-thickness-normal edge-pattern-solid transition" id="edge9" d="M292.472,658L292.472,665.5C292.472,673,292.472,688,292.472,703C292.472,718,292.472,733,292.472,740.5L292.472,748"></path><path marker-end="url(#mermaidSvgId_stateDiagram-barbEnd)" style="fill:none;" class="edge-thickness-normal edge-pattern-solid transition" id="edge10" d="M292.472,782.4L292.472,788.433C292.472,794.467,292.472,806.533,292.472,818.6C292.472,830.667,292.472,842.733,292.472,848.767L292.472,854.8"></path><path marker-end="url(#mermaidSvgId_stateDiagram-barbEnd)" style="fill:none;" class="edge-thickness-normal edge-pattern-solid transition" id="edge11" d="M330.041,854.8L343.219,848.767C356.397,842.733,382.754,830.667,395.932,815.733C409.11,800.8,409.11,783,409.11,763.733C409.11,744.467,409.11,723.733,409.11,703C409.11,682.267,409.11,661.533,409.11,640.8C409.11,620.067,409.11,599.333,409.11,578.6C409.11,557.867,409.11,537.133,409.11,517.867C409.11,498.6,409.11,480.8,409.11,463C409.11,445.2,409.11,427.4,409.11,409.6C409.11,391.8,409.11,374,391.984,359.067C374.858,344.133,340.606,332.067,323.48,326.033L306.354,320"></path><path marker-end="url(#mermaidSvgId_stateDiagram-barbEnd)" style="fill:none;" class="edge-thickness-normal edge-pattern-solid transition" id="edge12" d="M292.472,889.2L292.472,893.367C292.472,897.533,292.472,905.867,292.472,914.2C292.472,922.533,292.472,930.867,292.472,935.033L292.472,939.2"></path></g><g class="edgeLabels"><g><rect style="stroke: none" class="background"></rect></g><g><rect style="stroke: none" class="background"></rect></g><g><rect style="stroke: none" class="background"></rect></g><g class="edgeLabel"><g transform="translate(0, 0)" class="label"><text y="-10.1"><tspan dy="1.1em" y="-0.1em" x="0" class="text-outer-tspan"></tspan></text></g></g><g transform="translate(257.53008460998535, 142.60000133514404)" class="edgeLabel"><g transform="translate(-81.78125, -11.199999809265137)" class="label"><g><rect height="22.399999618530273" width="163.5625" y="-1.199999988079071" x="-2" style="" class="background"></rect><text style="" y="-10.1"><tspan dy="1.1em" y="-0.1em" x="0" class="text-outer-tspan"><tspan font-weight="normal" class="text-inner-tspan" font-style="normal">User</tspan><tspan font-weight="normal" class="text-inner-tspan" font-style="normal"> Opens</tspan><tspan font-weight="normal" class="text-inner-tspan" font-style="normal"> Dashboard</tspan></tspan></text></g></g></g><g transform="translate(257.53008460998535, 249.40000247955322)" class="edgeLabel"><g transform="translate(-67.07499694824219, -11.199999809265137)" class="label"><g><rect height="22.399999618530273" width="134.14999389648438" y="-1.199999988079071" x="-2" style="" class="background"></rect><text style="" y="-10.1"><tspan dy="1.1em" y="-0.1em" x="0" class="text-outer-tspan"><tspan font-weight="normal" class="text-inner-tspan" font-style="normal">Location</tspan><tspan font-weight="normal" class="text-inner-tspan" font-style="normal"> Received</tspan></tspan></text></g></g></g><g transform="translate(199.2109432220459, 356.2000036239624)" class="edgeLabel"><g transform="translate(-80.88750457763672, -11.199999809265137)" class="label"><g><rect height="22.399999618530273" width="161.77500915527344" y="-1.199999988079071" x="-2.800000011920929" style="" class="background"></rect><text style="" y="-10.1"><tspan dy="1.1em" y="-0.1em" x="0" class="text-outer-tspan"><tspan font-weight="normal" class="text-inner-tspan" font-style="normal">All</tspan><tspan font-weight="normal" class="text-inner-tspan" font-style="normal"> API</tspan><tspan font-weight="normal" class="text-inner-tspan" font-style="normal"> Data</tspan><tspan font-weight="normal" class="text-inner-tspan" font-style="normal"> Retrieved</tspan></tspan></text></g></g></g><g transform="translate(105.95000457763672, 463.0000047683716)" class="edgeLabel"><g transform="translate(-92.6117172241211, -11.199999809265137)" class="label"><g><rect height="22.399999618530273" width="185.2234344482422" y="-1.199999988079071" x="-2" style="" class="background"></rect><text style="" y="-10.1"><tspan dy="1.1em" y="-0.1em" x="0" class="text-outer-tspan"><tspan font-weight="normal" class="text-inner-tspan" font-style="normal">Disaster</tspan><tspan font-weight="normal" class="text-inner-tspan" font-style="normal"> Found</tspan><tspan font-weight="normal" class="text-inner-tspan" font-style="normal"> Near</tspan><tspan font-weight="normal" class="text-inner-tspan" font-style="normal"> User</tspan></tspan></text></g></g></g><g transform="translate(292.4718818664551, 516.4000053405762)" class="edgeLabel"><g transform="translate(-70.3734359741211, -11.199999809265137)" class="label"><g><rect height="22.399999618530273" width="140.7468719482422" y="-1.199999988079071" x="-2" style="" class="background"></rect><text style="" y="-10.1"><tspan dy="1.1em" y="-0.1em" x="0" class="text-outer-tspan"><tspan font-weight="normal" class="text-inner-tspan" font-style="normal">No</tspan><tspan font-weight="normal" class="text-inner-tspan" font-style="normal"> Disaster</tspan><tspan font-weight="normal" class="text-inner-tspan" font-style="normal"> Nearby</tspan></tspan></text></g></g></g><g transform="translate(105.95000457763672, 578.6000061035156)" class="edgeLabel"><g transform="translate(-97.95000457763672, -20)" class="label"><g><rect height="40" width="195.90000915527344" y="-1.199999988079071" x="-2.800000011920929" style="" class="background"></rect><text style="" y="-10.1"><tspan dy="1.1em" y="-0.1em" x="0" class="text-outer-tspan"><tspan font-weight="normal" class="text-inner-tspan" font-style="normal">Send</tspan><tspan font-weight="normal" class="text-inner-tspan" font-style="normal"> Email</tspan><tspan font-weight="normal" class="text-inner-tspan" font-style="normal"> to</tspan><tspan font-weight="normal" class="text-inner-tspan" font-style="normal"> Government</tspan></tspan><tspan dy="1.1em" y="1em" x="0" class="text-outer-tspan"><tspan font-weight="normal" class="text-inner-tspan" font-style="normal">via</tspan><tspan font-weight="normal" class="text-inner-tspan" font-style="normal"> SMTP</tspan></tspan></text></g></g></g><g transform="translate(105.95000457763672, 703.0000076293945)" class="edgeLabel"><g transform="translate(-69.60624694824219, -20)" class="label"><g><rect height="40" width="139.21249389648438" y="-1.199999988079071" x="-2" style="" class="background"></rect><text style="" y="-10.1"><tspan dy="1.1em" y="-0.1em" x="0" class="text-outer-tspan"><tspan font-weight="normal" class="text-inner-tspan" font-style="normal">Display</tspan><tspan font-weight="normal" class="text-inner-tspan" font-style="normal"> Warning</tspan><tspan font-weight="normal" class="text-inner-tspan" font-style="normal"> on</tspan></tspan><tspan dy="1.1em" y="1em" x="0" class="text-outer-tspan"><tspan font-weight="normal" class="text-inner-tspan" font-style="normal">Dashboard</tspan></tspan></text></g></g></g><g transform="translate(105.95000457763672, 818.6000089645386)" class="edgeLabel"><g transform="translate(-73.8687515258789, -11.199999809265137)" class="label"><g><rect height="22.399999618530273" width="147.7375030517578" y="-1.199999988079071" x="-2.800000011920929" style="" class="background"></rect><text style="" y="-10.1"><tspan dy="1.1em" y="-0.1em" x="0" class="text-outer-tspan"><tspan font-weight="normal" class="text-inner-tspan" font-style="normal">Monitor</tspan><tspan font-weight="normal" class="text-inner-tspan" font-style="normal"> for</tspan><tspan font-weight="normal" class="text-inner-tspan" font-style="normal"> Updates</tspan></tspan></text></g></g></g><g transform="translate(292.4718818664551, 703.0000076293945)" class="edgeLabel"><g transform="translate(-69.7945327758789, -11.199999809265137)" class="label"><g><rect height="22.399999618530273" width="139.5890655517578" y="-1.199999988079071" x="-2" style="" class="background"></rect><text style="" y="-10.1"><tspan dy="1.1em" y="-0.1em" x="0" class="text-outer-tspan"><tspan font-weight="normal" class="text-inner-tspan" font-style="normal">Show</tspan><tspan font-weight="normal" class="text-inner-tspan" font-style="normal"> Safe</tspan><tspan font-weight="normal" class="text-inner-tspan" font-style="normal"> Message</tspan></tspan></text></g></g></g><g class="edgeLabel"><g transform="translate(0, 0)" class="label"><text y="-10.1"><tspan dy="1.1em" y="-0.1em" x="0" class="text-outer-tspan"></tspan></text></g></g><g transform="translate(409.110164642334, 578.6000061035156)" class="edgeLabel"><g transform="translate(-71.08515930175781, -20)" class="label"><g><rect height="40" width="142.17031860351562" y="-1.199999988079071" x="-2" style="" class="background"></rect><text style="" y="-10.1"><tspan dy="1.1em" y="-0.1em" x="0" class="text-outer-tspan"><tspan font-weight="normal" class="text-inner-tspan" font-style="normal">Refresh/Repeat</tspan><tspan font-weight="normal" class="text-inner-tspan" font-style="normal"> for</tspan></tspan><tspan dy="1.1em" y="1em" x="0" class="text-outer-tspan"><tspan font-weight="normal" class="text-inner-tspan" font-style="normal">Real-Time</tspan><tspan font-weight="normal" class="text-inner-tspan" font-style="normal"> Update</tspan></tspan></text></g></g></g><g class="edgeLabel"><g transform="translate(0, 0)" class="label"><text y="-10.1"><tspan dy="1.1em" y="-0.1em" x="0" class="text-outer-tspan"></tspan></text></g></g></g><g class="nodes"><g transform="translate(257.53008460998535, 15)" id="state-root_start-0" class="node default"><circle height="14" width="14" r="7" class="state-start"></circle></g><g transform="translate(257.53008460998535, 89.20000076293945)" id="state-Start-1" class="node  statediagram-state"><rect height="34.39999961853027" width="51.064064025878906" y="-17.199999809265137" x="-25.532032012939453" ry="5" rx="5" style="" class="basic label-container"></rect><g transform="translate(-17.532032012939453, -9.199999809265137)" style="" class="label"><rect></rect><g><rect style="stroke: none" class="background"></rect><text style="" y="-10.1"><tspan dy="1.1em" y="-0.1em" x="0" class="text-outer-tspan"><tspan font-weight="normal" class="text-inner-tspan" font-style="normal">Start</tspan></tspan></text></g></g></g><g transform="translate(257.53008460998535, 196.00000190734863)" id="state-GettingLocation-2" class="node  statediagram-state"><rect height="34.39999961853027" width="130.82500457763672" y="-17.199999809265137" x="-65.41250228881836" ry="5" rx="5" style="" class="basic label-container"></rect><g transform="translate(-57.41250228881836, -9.199999809265137)" style="" class="label"><rect></rect><g><rect style="stroke: none" class="background"></rect><text style="" y="-10.1"><tspan dy="1.1em" y="-0.1em" x="0" class="text-outer-tspan"><tspan font-weight="normal" class="text-inner-tspan" font-style="normal">GettingLocation</tspan></tspan></text></g></g></g><g transform="translate(257.53008460998535, 302.8000030517578)" id="state-FetchingData-11" class="node  statediagram-state"><rect height="34.39999961853027" width="110.4375" y="-17.199999809265137" x="-55.21875" ry="5" rx="5" style="" class="basic label-container"></rect><g transform="translate(-47.21875, -9.199999809265137)" style="" class="label"><rect></rect><g><rect style="stroke: none" class="background"></rect><text style="" y="-10.1"><tspan dy="1.1em" y="-0.1em" x="0" class="text-outer-tspan"><tspan font-weight="normal" class="text-inner-tspan" font-style="normal">FetchingData</tspan></tspan></text></g></g></g><g transform="translate(199.2109432220459, 409.600004196167)" id="state-ProcessingData-5" class="node  statediagram-state"><rect height="34.39999961853027" width="122.88750457763672" y="-17.199999809265137" x="-61.44375228881836" ry="5" rx="5" style="" class="basic label-container"></rect><g transform="translate(-53.44375228881836, -9.199999809265137)" style="" class="label"><rect></rect><g><rect style="stroke: none" class="background"></rect><text style="" y="-10.1"><tspan dy="1.1em" y="-0.1em" x="0" class="text-outer-tspan"><tspan font-weight="normal" class="text-inner-tspan" font-style="normal">ProcessingData</tspan></tspan></text></g></g></g><g transform="translate(105.95000457763672, 516.4000053405762)" id="state-DisasterDetected-6" class="node  statediagram-state"><rect height="34.39999961853027" width="138.5500030517578" y="-17.199999809265137" x="-69.2750015258789" ry="5" rx="5" style="" class="basic label-container"></rect><g transform="translate(-61.275001525878906, -9.199999809265137)" style="" class="label"><rect></rect><g><rect style="stroke: none" class="background"></rect><text style="" y="-10.1"><tspan dy="1.1em" y="-0.1em" x="0" class="text-outer-tspan"><tspan font-weight="normal" class="text-inner-tspan" font-style="normal">DisasterDetected</tspan></tspan></text></g></g></g><g transform="translate(292.4718818664551, 640.8000068664551)" id="state-NoDisasterDetected-9" class="node  statediagram-state"><rect height="34.39999961853027" width="157.33750915527344" y="-17.199999809265137" x="-78.66875457763672" ry="5" rx="5" style="" class="basic label-container"></rect><g transform="translate(-70.66875457763672, -9.199999809265137)" style="" class="label"><rect></rect><g><rect style="stroke: none" class="background"></rect><text style="" y="-10.1"><tspan dy="1.1em" y="-0.1em" x="0" class="text-outer-tspan"><tspan font-weight="normal" class="text-inner-tspan" font-style="normal">NoDisasterDetected</tspan></tspan></text></g></g></g><g transform="translate(105.95000457763672, 640.8000068664551)" id="state-SendingAlert-7" class="node  statediagram-state"><rect height="34.39999961853027" width="106.9156265258789" y="-17.199999809265137" x="-53.45781326293945" ry="5" rx="5" style="" class="basic label-container"></rect><g transform="translate(-45.45781326293945, -9.199999809265137)" style="" class="label"><rect></rect><g><rect style="stroke: none" class="background"></rect><text style="" y="-10.1"><tspan dy="1.1em" y="-0.1em" x="0" class="text-outer-tspan"><tspan font-weight="normal" class="text-inner-tspan" font-style="normal">SendingAlert</tspan></tspan></text></g></g></g><g transform="translate(105.95000457763672, 765.200008392334)" id="state-ShowingAlert-8" class="node  statediagram-state"><rect height="34.39999961853027" width="109.7671890258789" y="-17.199999809265137" x="-54.88359451293945" ry="5" rx="5" style="" class="basic label-container"></rect><g transform="translate(-46.88359451293945, -9.199999809265137)" style="" class="label"><rect></rect><g><rect style="stroke: none" class="background"></rect><text style="" y="-10.1"><tspan dy="1.1em" y="-0.1em" x="0" class="text-outer-tspan"><tspan font-weight="normal" class="text-inner-tspan" font-style="normal">ShowingAlert</tspan></tspan></text></g></g></g><g transform="translate(292.4718818664551, 872.0000095367432)" id="state-Monitoring-12" class="node  statediagram-state"><rect height="34.39999961853027" width="92.5374984741211" y="-17.199999809265137" x="-46.26874923706055" ry="5" rx="5" style="" class="basic label-container"></rect><g transform="translate(-38.26874923706055, -9.199999809265137)" style="" class="label"><rect></rect><g><rect style="stroke: none" class="background"></rect><text style="" y="-10.1"><tspan dy="1.1em" y="-0.1em" x="0" class="text-outer-tspan"><tspan font-weight="normal" class="text-inner-tspan" font-style="normal">Monitoring</tspan></tspan></text></g></g></g><g transform="translate(292.4718818664551, 765.200008392334)" id="state-ShowingSafeMessage-10" class="node  statediagram-state"><rect height="34.39999961853027" width="163.2765655517578" y="-17.199999809265137" x="-81.6382827758789" ry="5" rx="5" style="" class="basic label-container"></rect><g transform="translate(-73.6382827758789, -9.199999809265137)" style="" class="label"><rect></rect><g><rect style="stroke: none" class="background"></rect><text style="" y="-10.1"><tspan dy="1.1em" y="-0.1em" x="0" class="text-outer-tspan"><tspan font-weight="normal" class="text-inner-tspan" font-style="normal">ShowingSafeMessage</tspan></tspan></text></g></g></g><g transform="translate(292.4718818664551, 946.2000102996826)" id="state-root_end-12" class="node default"><g><path style="" fill="#ffffff" stroke-width="0" stroke="none" d="M7 0 C7 0.40517908122283747, 6.964012880168563 0.816513743121899, 6.893654271085456 1.2155372436685123 C6.823295662002349 1.6145607442151257, 6.716427752933756 2.013397210557766, 6.5778483455013586 2.394141003279681 C6.439268938068961 2.7748847960015954, 6.26476736710249 3.149104622578984, 6.062177826491071 3.4999999999999996 C5.859588285879653 3.8508953774210153, 5.622755194947063 4.189128084166967, 5.362311101832846 4.499513267805774 C5.10186700871863 4.809898451444582, 4.809898451444583 5.10186700871863, 4.499513267805775 5.362311101832846 C4.189128084166968 5.622755194947063, 3.8508953774210166 5.859588285879652, 3.500000000000001 6.06217782649107 C3.149104622578985 6.264767367102489, 2.7748847960015963 6.439268938068961, 2.3941410032796817 6.5778483455013586 C2.013397210557767 6.716427752933756, 1.6145607442151264 6.823295662002349, 1.2155372436685128 6.893654271085456 C0.8165137431218992 6.964012880168563, 0.4051790812228379 7, 4.286263797015736e-16 7 C-0.405179081222837 7, -0.8165137431218985 6.964012880168563, -1.2155372436685121 6.893654271085456 C-1.6145607442151257 6.823295662002349, -2.0133972105577667 6.716427752933756, -2.394141003279681 6.5778483455013586 C-2.774884796001595 6.439268938068961, -3.149104622578983 6.26476736710249, -3.4999999999999982 6.062177826491071 C-3.8508953774210135 5.859588285879653, -4.189128084166966 5.6227551949470636, -4.499513267805773 5.362311101832848 C-4.809898451444581 5.101867008718632, -5.101867008718628 4.809898451444586, -5.3623111018328435 4.499513267805779 C-5.622755194947059 4.189128084166971, -5.859588285879649 3.8508953774210206, -6.062177826491068 3.5000000000000053 C-6.264767367102486 3.14910462257899, -6.439268938068958 2.774884796001602, -6.577848345501356 2.394141003279688 C-6.716427752933754 2.0133972105577738, -6.823295662002347 1.614560744215134, -6.893654271085454 1.215537243668521 C-6.9640128801685615 0.816513743121908, -6.999999999999999 0.4051790812228472, -7 1.0183126166254463e-14 C-7.000000000000001 -0.40517908122282686, -6.964012880168565 -0.8165137431218878, -6.893654271085459 -1.215537243668501 C-6.823295662002352 -1.6145607442151142, -6.716427752933759 -2.0133972105577542, -6.577848345501363 -2.394141003279669 C-6.439268938068967 -2.7748847960015834, -6.264767367102496 -3.149104622578972, -6.062177826491078 -3.4999999999999876 C-5.859588285879661 -3.8508953774210033, -5.6227551949470715 -4.1891280841669545, -5.362311101832856 -4.499513267805763 C-5.10186700871864 -4.809898451444571, -4.809898451444594 -5.10186700871862, -4.499513267805787 -5.362311101832836 C-4.189128084166979 -5.622755194947053, -3.850895377421028 -5.859588285879643, -3.5000000000000133 -6.062177826491062 C-3.1491046225789985 -6.264767367102482, -2.774884796001611 -6.439268938068954, -2.3941410032796973 -6.577848345501353 C-2.0133972105577835 -6.716427752933752, -1.6145607442151435 -6.823295662002345, -1.2155372436685306 -6.893654271085453 C-0.8165137431219176 -6.9640128801685615, -0.40517908122285695 -6.999999999999999, -1.9937625952807352e-14 -7 C0.4051790812228171 -7.000000000000001, 0.8165137431218781 -6.964012880168565, 1.2155372436684913 -6.89365427108546 C1.6145607442151044 -6.823295662002354, 2.013397210557745 -6.716427752933763, 2.3941410032796595 -6.5778483455013665 C2.774884796001574 -6.43926893806897, 3.149104622578963 -6.2647673671025, 3.499999999999979 -6.062177826491083 C3.8508953774209953 -5.859588285879665, 4.189128084166947 -5.622755194947077, 4.499513267805756 -5.362311101832862 C4.809898451444564 -5.1018670087186475, 5.101867008718613 -4.809898451444602, 5.362311101832829 -4.499513267805796 C5.622755194947046 -4.189128084166989, 5.859588285879637 -3.8508953774210393, 6.062177826491056 -3.500000000000025 C6.2647673671024755 -3.1491046225790105, 6.439268938068949 -2.774884796001623, 6.577848345501348 -2.3941410032797092 C6.716427752933747 -2.0133972105577955, 6.823295662002342 -1.6145607442151562, 6.893654271085451 -1.2155372436685434 C6.96401288016856 -0.8165137431219307, 6.982275711847575 -0.2025895406114567, 7 -3.2800750208310675e-14 C7.017724288152425 0.2025895406113911, 7.017724288152424 -0.2025895406114242, 7 0"></path><path style="" fill="none" stroke-width="2" stroke="#0a0f14" d="M7 0 C7 0.40517908122283747, 6.964012880168563 0.816513743121899, 6.893654271085456 1.2155372436685123 C6.823295662002349 1.6145607442151257, 6.716427752933756 2.013397210557766, 6.5778483455013586 2.394141003279681 C6.439268938068961 2.7748847960015954, 6.26476736710249 3.149104622578984, 6.062177826491071 3.4999999999999996 C5.859588285879653 3.8508953774210153, 5.622755194947063 4.189128084166967, 5.362311101832846 4.499513267805774 C5.10186700871863 4.809898451444582, 4.809898451444583 5.10186700871863, 4.499513267805775 5.362311101832846 C4.189128084166968 5.622755194947063, 3.8508953774210166 5.859588285879652, 3.500000000000001 6.06217782649107 C3.149104622578985 6.264767367102489, 2.7748847960015963 6.439268938068961, 2.3941410032796817 6.5778483455013586 C2.013397210557767 6.716427752933756, 1.6145607442151264 6.823295662002349, 1.2155372436685128 6.893654271085456 C0.8165137431218992 6.964012880168563, 0.4051790812228379 7, 4.286263797015736e-16 7 C-0.405179081222837 7, -0.8165137431218985 6.964012880168563, -1.2155372436685121 6.893654271085456 C-1.6145607442151257 6.823295662002349, -2.0133972105577667 6.716427752933756, -2.394141003279681 6.5778483455013586 C-2.774884796001595 6.439268938068961, -3.149104622578983 6.26476736710249, -3.4999999999999982 6.062177826491071 C-3.8508953774210135 5.859588285879653, -4.189128084166966 5.6227551949470636, -4.499513267805773 5.362311101832848 C-4.809898451444581 5.101867008718632, -5.101867008718628 4.809898451444586, -5.3623111018328435 4.499513267805779 C-5.622755194947059 4.189128084166971, -5.859588285879649 3.8508953774210206, -6.062177826491068 3.5000000000000053 C-6.264767367102486 3.14910462257899, -6.439268938068958 2.774884796001602, -6.577848345501356 2.394141003279688 C-6.716427752933754 2.0133972105577738, -6.823295662002347 1.614560744215134, -6.893654271085454 1.215537243668521 C-6.9640128801685615 0.816513743121908, -6.999999999999999 0.4051790812228472, -7 1.0183126166254463e-14 C-7.000000000000001 -0.40517908122282686, -6.964012880168565 -0.8165137431218878, -6.893654271085459 -1.215537243668501 C-6.823295662002352 -1.6145607442151142, -6.716427752933759 -2.0133972105577542, -6.577848345501363 -2.394141003279669 C-6.439268938068967 -2.7748847960015834, -6.264767367102496 -3.149104622578972, -6.062177826491078 -3.4999999999999876 C-5.859588285879661 -3.8508953774210033, -5.6227551949470715 -4.1891280841669545, -5.362311101832856 -4.499513267805763 C-5.10186700871864 -4.809898451444571, -4.809898451444594 -5.10186700871862, -4.499513267805787 -5.362311101832836 C-4.189128084166979 -5.622755194947053, -3.850895377421028 -5.859588285879643, -3.5000000000000133 -6.062177826491062 C-3.1491046225789985 -6.264767367102482, -2.774884796001611 -6.439268938068954, -2.3941410032796973 -6.577848345501353 C-2.0133972105577835 -6.716427752933752, -1.6145607442151435 -6.823295662002345, -1.2155372436685306 -6.893654271085453 C-0.8165137431219176 -6.9640128801685615, -0.40517908122285695 -6.999999999999999, -1.9937625952807352e-14 -7 C0.4051790812228171 -7.000000000000001, 0.8165137431218781 -6.964012880168565, 1.2155372436684913 -6.89365427108546 C1.6145607442151044 -6.823295662002354, 2.013397210557745 -6.716427752933763, 2.3941410032796595 -6.5778483455013665 C2.774884796001574 -6.43926893806897, 3.149104622578963 -6.2647673671025, 3.499999999999979 -6.062177826491083 C3.8508953774209953 -5.859588285879665, 4.189128084166947 -5.622755194947077, 4.499513267805756 -5.362311101832862 C4.809898451444564 -5.1018670087186475, 5.101867008718613 -4.809898451444602, 5.362311101832829 -4.499513267805796 C5.622755194947046 -4.189128084166989, 5.859588285879637 -3.8508953774210393, 6.062177826491056 -3.500000000000025 C6.2647673671024755 -3.1491046225790105, 6.439268938068949 -2.774884796001623, 6.577848345501348 -2.3941410032797092 C6.716427752933747 -2.0133972105577955, 6.823295662002342 -1.6145607442151562, 6.893654271085451 -1.2155372436685434 C6.96401288016856 -0.8165137431219307, 6.982275711847575 -0.2025895406114567, 7 -3.2800750208310675e-14 C7.017724288152425 0.2025895406113911, 7.017724288152424 -0.2025895406114242, 7 0"></path><g><path style="" fill="#1a468b" stroke-width="0" stroke="none" d="M2.5 0 C2.5 0.14470681472244193, 2.487147457203058 0.29161205111496386, 2.46201938253052 0.4341204441673258 C2.436891307857982 0.5766288372196877, 2.3987241974763416 0.7190704323420595, 2.3492315519647713 0.8550503583141718 C2.299738906453201 0.991030284286284, 2.2374169168223177 1.124680222349637, 2.165063509461097 1.2499999999999998 C2.092710102099876 1.3753197776503625, 2.0081268553382365 1.496117172916774, 1.915111107797445 1.6069690242163481 C1.8220953602566536 1.7178208755159223, 1.7178208755159226 1.8220953602566536, 1.6069690242163484 1.915111107797445 C1.4961171729167742 2.0081268553382365, 1.375319777650363 2.0927101020998755, 1.2500000000000002 2.1650635094610964 C1.1246802223496375 2.2374169168223172, 0.9910302842862845 2.2997389064532, 0.8550503583141721 2.349231551964771 C0.7190704323420597 2.3987241974763416, 0.576628837219688 2.436891307857982, 0.43412044416732604 2.46201938253052 C0.291612051114964 2.487147457203058, 0.14470681472244212 2.5, 1.5308084989341916e-16 2.5 C-0.1447068147224418 2.5, -0.2916120511149638 2.487147457203058, -0.43412044416732576 2.46201938253052 C-0.5766288372196877 2.436891307857982, -0.7190704323420595 2.3987241974763416, -0.8550503583141718 2.3492315519647713 C-0.991030284286284 2.299738906453201, -1.124680222349637 2.2374169168223177, -1.2499999999999996 2.165063509461097 C-1.375319777650362 2.092710102099876, -1.4961171729167733 2.008126855338237, -1.6069690242163475 1.9151111077974459 C-1.7178208755159217 1.8220953602566548, -1.822095360256653 1.7178208755159234, -1.9151111077974443 1.6069690242163495 C-2.0081268553382357 1.4961171729167755, -2.0927101020998746 1.3753197776503645, -2.1650635094610955 1.250000000000002 C-2.2374169168223164 1.1246802223496395, -2.2997389064531992 0.9910302842862865, -2.34923155196477 0.8550503583141743 C-2.3987241974763407 0.7190704323420621, -2.436891307857981 0.5766288372196907, -2.4620193825305194 0.434120444167329 C-2.487147457203058 0.29161205111496724, -2.5 0.14470681472244545, -2.5 3.636830773662308e-15 C-2.5 -0.14470681472243818, -2.4871474572030587 -0.2916120511149599, -2.4620193825305208 -0.4341204441673218 C-2.436891307857983 -0.5766288372196837, -2.398724197476343 -0.7190704323420553, -2.3492315519647726 -0.8550503583141675 C-2.2997389064532023 -0.9910302842862798, -2.23741691682232 -1.1246802223496328, -2.165063509461099 -1.2499999999999956 C-2.092710102099878 -1.3753197776503583, -2.00812685533824 -1.4961171729167695, -1.9151111077974488 -1.606969024216344 C-1.8220953602566576 -1.7178208755159183, -1.7178208755159263 -1.82209536025665, -1.6069690242163523 -1.9151111077974416 C-1.4961171729167784 -2.0081268553382334, -1.3753197776503672 -2.0927101020998724, -1.2500000000000047 -2.1650635094610937 C-1.1246802223496422 -2.237416916822315, -0.9910302842862897 -2.299738906453198, -0.8550503583141776 -2.3492315519647686 C-0.7190704323420656 -2.3987241974763394, -0.5766288372196942 -2.4368913078579806, -0.43412044416733236 -2.462019382530519 C-0.29161205111497057 -2.4871474572030574, -0.1447068147224489 -2.4999999999999996, -7.120580697431198e-15 -2.5 C0.14470681472243463 -2.5000000000000004, 0.29161205111495647 -2.487147457203059, 0.4341204441673183 -2.4620193825305217 C0.5766288372196802 -2.436891307857984, 0.7190704323420518 -2.3987241974763442, 0.8550503583141642 -2.349231551964774 C0.9910302842862766 -2.2997389064532037, 1.1246802223496295 -2.2374169168223212, 1.2499999999999925 -2.165063509461101 C1.3753197776503554 -2.0927101020998804, 1.4961171729167668 -2.008126855338242, 1.6069690242163412 -1.915111107797451 C1.7178208755159157 -1.82209536025666, 1.8220953602566472 -1.7178208755159294, 1.915111107797439 -1.6069690242163557 C2.0081268553382308 -1.496117172916782, 2.09271010209987 -1.3753197776503712, 2.1650635094610915 -1.2500000000000089 C2.237416916822313 -1.1246802223496466, 2.299738906453196 -0.9910302842862939, 2.3492315519647673 -0.855050358314182 C2.3987241974763385 -0.71907043234207, 2.4368913078579792 -0.5766288372196986, 2.462019382530518 -0.4341204441673369 C2.487147457203057 -0.29161205111497523, 2.4936698970884197 -0.07235340736123454, 2.5 -1.1714553645825241e-14 C2.5063301029115803 0.07235340736121111, 2.50633010291158 -0.07235340736122292, 2.5 0"></path><path style="" fill="none" stroke-width="2" stroke="#1a468b" d="M2.5 0 C2.5 0.14470681472244193, 2.487147457203058 0.29161205111496386, 2.46201938253052 0.4341204441673258 C2.436891307857982 0.5766288372196877, 2.3987241974763416 0.7190704323420595, 2.3492315519647713 0.8550503583141718 C2.299738906453201 0.991030284286284, 2.2374169168223177 1.124680222349637, 2.165063509461097 1.2499999999999998 C2.092710102099876 1.3753197776503625, 2.0081268553382365 1.496117172916774, 1.915111107797445 1.6069690242163481 C1.8220953602566536 1.7178208755159223, 1.7178208755159226 1.8220953602566536, 1.6069690242163484 1.915111107797445 C1.4961171729167742 2.0081268553382365, 1.375319777650363 2.0927101020998755, 1.2500000000000002 2.1650635094610964 C1.1246802223496375 2.2374169168223172, 0.9910302842862845 2.2997389064532, 0.8550503583141721 2.349231551964771 C0.7190704323420597 2.3987241974763416, 0.576628837219688 2.436891307857982, 0.43412044416732604 2.46201938253052 C0.291612051114964 2.487147457203058, 0.14470681472244212 2.5, 1.5308084989341916e-16 2.5 C-0.1447068147224418 2.5, -0.2916120511149638 2.487147457203058, -0.43412044416732576 2.46201938253052 C-0.5766288372196877 2.436891307857982, -0.7190704323420595 2.3987241974763416, -0.8550503583141718 2.3492315519647713 C-0.991030284286284 2.299738906453201, -1.124680222349637 2.2374169168223177, -1.2499999999999996 2.165063509461097 C-1.375319777650362 2.092710102099876, -1.4961171729167733 2.008126855338237, -1.6069690242163475 1.9151111077974459 C-1.7178208755159217 1.8220953602566548, -1.822095360256653 1.7178208755159234, -1.9151111077974443 1.6069690242163495 C-2.0081268553382357 1.4961171729167755, -2.0927101020998746 1.3753197776503645, -2.1650635094610955 1.250000000000002 C-2.2374169168223164 1.1246802223496395, -2.2997389064531992 0.9910302842862865, -2.34923155196477 0.8550503583141743 C-2.3987241974763407 0.7190704323420621, -2.436891307857981 0.5766288372196907, -2.4620193825305194 0.434120444167329 C-2.487147457203058 0.29161205111496724, -2.5 0.14470681472244545, -2.5 3.636830773662308e-15 C-2.5 -0.14470681472243818, -2.4871474572030587 -0.2916120511149599, -2.4620193825305208 -0.4341204441673218 C-2.436891307857983 -0.5766288372196837, -2.398724197476343 -0.7190704323420553, -2.3492315519647726 -0.8550503583141675 C-2.2997389064532023 -0.9910302842862798, -2.23741691682232 -1.1246802223496328, -2.165063509461099 -1.2499999999999956 C-2.092710102099878 -1.3753197776503583, -2.00812685533824 -1.4961171729167695, -1.9151111077974488 -1.606969024216344 C-1.8220953602566576 -1.7178208755159183, -1.7178208755159263 -1.82209536025665, -1.6069690242163523 -1.9151111077974416 C-1.4961171729167784 -2.0081268553382334, -1.3753197776503672 -2.0927101020998724, -1.2500000000000047 -2.1650635094610937 C-1.1246802223496422 -2.237416916822315, -0.9910302842862897 -2.299738906453198, -0.8550503583141776 -2.3492315519647686 C-0.7190704323420656 -2.3987241974763394, -0.5766288372196942 -2.4368913078579806, -0.43412044416733236 -2.462019382530519 C-0.29161205111497057 -2.4871474572030574, -0.1447068147224489 -2.4999999999999996, -7.120580697431198e-15 -2.5 C0.14470681472243463 -2.5000000000000004, 0.29161205111495647 -2.487147457203059, 0.4341204441673183 -2.4620193825305217 C0.5766288372196802 -2.436891307857984, 0.7190704323420518 -2.3987241974763442, 0.8550503583141642 -2.349231551964774 C0.9910302842862766 -2.2997389064532037, 1.1246802223496295 -2.2374169168223212, 1.2499999999999925 -2.165063509461101 C1.3753197776503554 -2.0927101020998804, 1.4961171729167668 -2.008126855338242, 1.6069690242163412 -1.915111107797451 C1.7178208755159157 -1.82209536025666, 1.8220953602566472 -1.7178208755159294, 1.915111107797439 -1.6069690242163557 C2.0081268553382308 -1.496117172916782, 2.09271010209987 -1.3753197776503712, 2.1650635094610915 -1.2500000000000089 C2.237416916822313 -1.1246802223496466, 2.299738906453196 -0.9910302842862939, 2.3492315519647673 -0.855050358314182 C2.3987241974763385 -0.71907043234207, 2.4368913078579792 -0.5766288372196986, 2.462019382530518 -0.4341204441673369 C2.487147457203057 -0.29161205111497523, 2.4936698970884197 -0.07235340736123454, 2.5 -1.1714553645825241e-14 C2.5063301029115803 0.07235340736121111, 2.50633010291158 -0.07235340736122292, 2.5 0"></path></g></g></g></g></g></g></svg>